<?xml version="1.0" encoding="UTF-8" standalone="no"?>
<!-- Created with Inkscape (http://www.inkscape.org/) -->

<svg
   width="149.20737mm"
   height="149.20737mm"
   viewBox="0 0 149.20736 149.20736"
   version="1.1"
   id="svg5"
   inkscape:version="1.1.2 (0a00cf5339, 2022-02-04)"
   sodipodi:docname="www8.svg"
   xmlns:inkscape="http://www.inkscape.org/namespaces/inkscape"
   xmlns:sodipodi="http://sodipodi.sourceforge.net/DTD/sodipodi-0.dtd"
   xmlns="http://www.w3.org/2000/svg"
   xmlns:svg="http://www.w3.org/2000/svg">
  <sodipodi:namedview
     id="namedview7"
     pagecolor="#ffffff"
     bordercolor="#666666"
     borderopacity="1.0"
     inkscape:pageshadow="2"
     inkscape:pageopacity="0.0"
     inkscape:pagecheckerboard="0"
     inkscape:document-units="mm"
     showgrid="false"
     inkscape:zoom="0.52524691"
     inkscape:cx="146.59772"
     inkscape:cy="292.24351"
     inkscape:window-width="1366"
     inkscape:window-height="705"
     inkscape:window-x="0"
     inkscape:window-y="0"
     inkscape:window-maximized="1"
     inkscape:current-layer="layer1" />
  <defs
     id="defs2" />
  <g
     inkscape:label="Capa 1"
     inkscape:groupmode="layer"
     id="layer1"
     transform="translate(-54.941864,-54.850235)">
    <circle
       style="fill:#800000;fill-rule:evenodd;stroke-width:0.304829"
       id="path30"
       cx="129.54555"
       cy="129.45392"
       r="74.603683" />
    <circle
       style="fill:none;fill-opacity:1;stroke:none;stroke-width:0.116497;stroke-linecap:round;stroke-opacity:1"
       id="path937"
       cx="128.12735"
       cy="125.83757"
       r="64.293427" />
    <path
       style="fill:#e3dbdb;stroke-width:0.264583"
       d="m 129.33177,184.6766 c -0.72034,-0.79596 -3.35751,-2.09702 -5.2161,-2.57338 -1.33304,-0.34166 -3.75818,-0.47627 -11.35246,-0.63009 -7.50098,-0.15194 -10.10037,-0.29457 -11.64167,-0.63878 -5.43714,-1.21427 -8.383228,-4.04971 -9.377719,-9.02551 -0.378852,-1.89554 -0.415553,-6.48396 -0.351308,-43.92083 l 0.07174,-41.804167 h 38.438417 38.43842 l -0.0114,42.236567 c -0.0112,41.46566 -0.021,42.2645 -0.53808,43.7674 -1.62673,4.72817 -4.62755,7.57036 -9.39678,8.90003 -1.99378,0.55587 -2.64368,0.58941 -12.02952,0.62073 -8.4923,0.0283 -10.14842,0.0981 -11.49418,0.48441 -1.77552,0.50963 -3.07768,1.22103 -4.26781,2.3316 -0.79647,0.74322 -0.82237,0.74835 -1.27154,0.25202 z m 4.61119,-6.69604 c 0.79317,-1.77154 1.66338,-3.42951 1.93379,-3.68437 0.93381,-0.8801 0.31996,-1.0068 -1.39595,-0.28812 -1.62733,0.68157 -2.38202,1.37265 -1.49901,1.37265 0.23041,0 0.41892,0.10318 0.41892,0.2293 0,0.54697 -1.14575,2.9229 -1.34896,2.79731 -0.45031,-0.27831 -0.80168,-2.20417 -0.50371,-2.76093 0.35281,-0.65923 0.0672,-0.67964 -1.18106,-0.0844 -0.87597,0.41772 -1.35937,1.02327 -0.57728,0.72315 0.47968,-0.18407 0.99531,0.69096 1.76675,2.99816 0.35276,1.05503 0.70956,1.91823 0.79288,1.91823 0.0833,0 0.80045,-1.44945 1.59363,-3.22099 z m 19.65932,1.93355 c 1.36108,-1.19721 1.67014,-3.69111 0.69443,-5.60365 -0.63618,-1.24702 -1.48948,-1.67233 -2.58735,-1.28962 -2.05764,0.71731 -2.69404,5.36837 -0.94266,6.88941 0.96789,0.8406 1.88289,0.84184 2.83558,0.004 z m -1.8027,-0.28336 c -0.0942,-0.15244 -0.0884,-1.58778 0.013,-3.18965 0.16542,-2.61423 0.23548,-2.91247 0.6842,-2.91247 0.46599,0 0.49485,0.21068 0.42536,3.10566 -0.0635,2.64412 -0.13969,3.11814 -0.51289,3.18965 -0.2411,0.0462 -0.51544,-0.0407 -0.60966,-0.19319 z m -24.87078,0.23927 c 0.21257,-0.17642 0.3865,-0.50323 0.3865,-0.72625 0,-0.35245 -0.0633,-0.34821 -0.48386,0.0324 -0.6028,0.54552 -1.72531,0.56716 -2.16143,0.0417 -0.2144,-0.25834 -0.28856,-0.95297 -0.2131,-1.9961 0.0926,-1.27988 0.25366,-1.73782 0.80537,-2.28953 l 0.68965,-0.68964 0.37611,0.8998 c 0.57495,1.37547 1.10526,1.71817 1.87666,1.21272 0.3451,-0.22612 0.68988,-0.64981 0.76617,-0.94153 0.12182,-0.46585 0.0761,-0.49207 -0.37577,-0.21547 -0.4449,0.27233 -0.61094,0.19831 -1.22787,-0.54736 -1.45981,-1.76447 -3.81758,-0.72287 -4.30819,1.90326 -0.2557,1.36867 0.006,2.32358 0.90044,3.28296 0.46857,0.50271 0.76707,0.59466 1.58025,0.48681 0.55141,-0.0731 1.17649,-0.27732 1.38907,-0.45374 z m 18.66602,0.023 c -0.20165,-0.12462 -0.28852,-0.71215 -0.23697,-1.60261 l 0.0814,-1.40586 1.18022,0.001 1.18022,0.001 -0.0723,1.29747 c -0.0448,0.80441 -0.23226,1.4204 -0.49323,1.62093 -0.34744,0.26698 -0.3561,0.34583 -0.0496,0.45165 0.65948,0.22769 1.82617,0.0283 1.82636,-0.31208 1e-4,-0.1819 -0.14864,-0.33048 -0.33054,-0.33017 -0.50001,7.9e-4 -0.30066,-5.40718 0.21509,-5.83521 0.6196,-0.51422 0.43896,-0.77993 -0.5302,-0.77993 -0.97457,0 -1.45945,0.37539 -0.80785,0.62543 0.26993,0.10358 0.39536,0.53048 0.39536,1.3456 0,1.03932 -0.0822,1.21451 -0.63455,1.35315 -0.349,0.0876 -0.91455,0.11962 -1.25677,0.0712 -0.53983,-0.0764 -0.63292,-0.25486 -0.70298,-1.34754 -0.0608,-0.94793 0.021,-1.29853 0.33073,-1.41737 0.85691,-0.32868 0.35757,-0.6303 -1.04373,-0.6303 -1.34689,0 -1.82821,0.2674 -1.19062,0.66145 0.15002,0.0927 0.26458,1.40358 0.26458,3.02747 0,2.68715 -0.0343,2.87291 -0.55579,3.00928 -1.05291,0.27535 -0.28612,0.57765 1.23013,0.48497 0.83566,-0.0511 1.37612,-0.18141 1.20102,-0.28963 z m -5.26236,-0.55542 c 0.86345,-0.86345 0.82789,-1.4464 -0.0403,-0.6607 -0.74532,0.67451 -1.71132,0.35547 -2.15921,-0.71312 -0.47872,-1.14217 -0.42532,-3.03461 0.10046,-3.5604 0.37769,-0.37769 0.50074,-0.36292 1.35028,0.16213 0.86791,0.5364 0.9901,0.54905 1.70943,0.17707 0.73127,-0.37815 1.10343,-0.89795 1.10343,-1.54117 0,-0.15617 -0.21774,-0.0869 -0.48386,0.15393 -0.59914,0.54222 -0.94369,0.55254 -1.36823,0.041 -0.56809,-0.68451 -2.18408,-0.49934 -2.99081,0.3427 -1.08972,1.13743 -1.63012,2.98077 -1.22961,4.19432 0.72546,2.19817 2.56874,2.84391 4.00842,1.40423 z m -23.47035,0.005 c -0.0979,-0.30833 -0.10538,-0.84967 -0.0167,-1.20297 0.1428,-0.56896 0.30697,-0.64236 1.43663,-0.64236 1.10996,0 1.31524,0.0874 1.58246,0.6739 0.40856,0.89667 0.3871,1.17818 -0.0898,1.17818 -0.21828,0 -0.39688,0.11906 -0.39688,0.26458 0,0.15193 0.81247,0.26458 1.90824,0.26458 h 1.90823 l -0.87101,-0.7276 c -0.60368,-0.50428 -1.21553,-1.53488 -1.99345,-3.35774 -0.61733,-1.44658 -1.25711,-2.67504 -1.42174,-2.72991 -0.16462,-0.0549 -0.95421,1.26774 -1.75465,2.93915 -1.48653,3.10406 -2.11708,3.76116 -2.94769,3.07181 -1.12857,-0.93662 0.39507,-4.96518 2.19751,-5.81029 0.46554,-0.21828 0.84902,-0.48617 0.85217,-0.59531 0.003,-0.10914 -0.79794,-0.19482 -1.78021,-0.1904 -1.3249,0.006 -1.66823,0.0767 -1.32997,0.27379 0.41206,0.24014 0.36377,0.39408 -0.50135,1.59826 l -0.95733,1.33253 -0.8165,-1.25522 c -0.55171,-0.84814 -0.71089,-1.29042 -0.49084,-1.36377 0.77445,-0.25815 0.22369,-0.59114 -0.93109,-0.56294 -0.69123,0.0169 -1.05731,0.0834 -0.81353,0.14788 0.24378,0.0645 0.93954,0.90874 1.54613,1.87618 1.29874,2.07137 1.74507,4.3393 0.91656,4.65723 -0.851,0.32656 -1.56832,-0.54986 -2.87714,-3.51528 -0.71177,-1.61266 -1.37166,-2.93212 -1.46642,-2.93212 -0.0948,0 -0.63198,1.0418 -1.19381,2.31511 -0.56183,1.2733 -1.19543,2.70205 -1.40799,3.175 -0.21257,0.47294 -0.54449,0.85989 -0.73761,0.85989 -0.19311,0 -0.42469,0.11906 -0.51463,0.26459 -0.10012,0.16199 0.31673,0.26458 1.07511,0.26458 1.08325,0 1.19638,-0.0509 0.90178,-0.4059 -0.27318,-0.32915 -0.27085,-0.52924 0.0123,-1.05833 0.2955,-0.55214 0.54127,-0.65244 1.5987,-0.65244 1.13808,0 1.26558,0.064 1.42954,0.71723 0.13011,0.51839 0.0566,0.80745 -0.26502,1.04265 -0.51931,0.37973 0.13193,0.45058 5.25735,0.57194 3.08386,0.073 3.12795,0.0658 2.95267,-0.48648 z m -10.01072,-3.36669 c 0.54088,-1.30515 0.51759,-1.29655 0.99752,-0.36846 0.59974,1.15977 0.52649,1.36065 -0.49616,1.36065 h -0.91254 z m 11.11085,0.19844 c 0.4722,-0.94655 0.76775,-1.00614 0.98421,-0.19844 0.25019,0.93358 0.21435,0.99219 -0.60671,0.99219 -0.77102,0 -0.77221,-0.003 -0.3775,-0.79375 z m -17.63445,1.32291 c 0.29945,-0.72292 0.78158,-1.08073 0.80217,-0.59531 0.005,0.10914 0.1795,0.42446 0.3886,0.70072 0.31437,0.41531 0.45034,0.44406 0.78534,0.16604 0.60292,-0.50038 0.491,-1.03357 -0.25631,-1.22113 -0.36381,-0.0913 -0.66146,-0.3188 -0.66146,-0.50553 0,-0.18673 0.29765,-0.41421 0.66146,-0.50552 0.79536,-0.19963 0.82293,-0.42918 0.15026,-1.2511 l -0.5112,-0.62463 -0.44011,1.04417 -0.44012,1.04417 -0.43289,-0.71344 c -0.49503,-0.81586 -0.887002,-0.89692 -1.392414,-0.28793 -0.300041,0.36152 -0.277418,0.48087 0.150464,0.79375 0.276982,0.20253 0.659441,0.36824 0.849909,0.36824 0.516341,0 0.425221,0.22209 -0.372701,0.90843 -0.618941,0.53239 -0.669665,0.67791 -0.364478,1.04564 0.503132,0.60624 0.709447,0.53644 1.08348,-0.36657 z m 58.36427,-0.13229 c 0.21162,-0.84315 0.46387,-0.83378 1.15342,0.0428 0.53694,0.6826 0.56582,0.68872 0.93684,0.19844 0.52914,-0.69924 0.5115,-0.74245 -0.46025,-1.1272 -0.7879,-0.31195 -0.81921,-0.36665 -0.37396,-0.65332 1.34597,-0.86656 1.36581,-0.89338 0.99303,-1.34256 -0.50946,-0.61386 -0.6645,-0.54084 -1.18959,0.56028 l -0.47008,0.98578 -0.73503,-0.90059 c -0.71777,-0.87946 -0.74204,-0.88748 -1.03413,-0.34172 -0.40609,0.75879 -0.38124,0.85825 0.21445,0.85825 0.85406,0 0.94402,0.56987 0.17804,1.12785 -0.66951,0.4877 -0.68377,0.5401 -0.23878,0.87762 0.67209,0.50978 0.83799,0.46359 1.02604,-0.28568 z m -27.00559,-5.16551 c 1.25341,-1.385 1.62696,-1.44721 8.85799,-1.47508 5.31414,-0.0205 7.09718,-0.11742 8.39646,-0.4565 3.43394,-0.89618 5.57764,-2.47243 7.17476,-5.27559 1.69373,-2.97271 1.6267,-1.50047 1.6267,-35.72768 V 98.174094 l -27.78125,-0.02439 -27.78125,-0.02442 0.003,31.682396 c 0.003,33.80301 -0.0302,32.88057 1.2904,35.4637 0.31927,0.62451 1.06396,1.61892 1.65485,2.20982 2.35417,2.35417 5.75625,3.13483 13.68887,3.14116 6.18111,0.005 7.83084,0.29546 9.19718,1.61977 0.50435,0.48884 1.17084,1.39706 1.48109,2.01827 l 0.56408,1.12945 0.55231,-1.30653 c 0.30377,-0.71859 0.78737,-1.56627 1.07467,-1.88373 z m -3.02487,-2.26793 c -1.76197,-1.25171 -3.11726,-1.46698 -10.60672,-1.68479 -7.67003,-0.22306 -8.81518,-0.41989 -10.79743,-1.85582 -0.60195,-0.43605 -1.33638,-1.26703 -1.63206,-1.84663 -1.35952,-2.66488 -1.32885,-1.87839 -1.32885,-34.06747 V 100.501 l 25.59844,0.0675 25.59844,0.0675 v 30.16249 30.1625 l -0.67688,1.60422 c -0.86796,2.05706 -1.92983,3.39274 -3.42416,4.30711 -2.25202,1.37799 -3.03483,1.49496 -10.18646,1.52216 -3.63802,0.0138 -7.0313,0.11766 -7.54062,0.23073 -1.15805,0.25707 -2.70414,1.02884 -3.15896,1.57686 -0.45288,0.5457 -0.75923,0.5008 -1.84474,-0.27035 z m -3.05809,-4.84293 c 1.13601,-0.2058 1.74664,-0.47673 2.17481,-0.96495 0.70016,-0.79837 0.72806,-1.00792 0.20397,-1.53201 -0.27125,-0.27125 -0.71373,-0.3481 -1.44187,-0.25044 -0.98453,0.13206 -1.06198,0.0931 -1.23265,-0.61974 -0.39617,-1.65478 -1.03373,-1.84306 -1.41731,-0.41856 -0.34443,1.27911 -1.03387,2.0123 -2.50357,2.66242 -1.23043,0.54428 -1.84685,1.31573 -1.58874,1.98834 0.24413,0.6362 0.91768,0.63828 2.63036,0.008 0.87753,-0.32288 2.30628,-0.71581 3.175,-0.87319 z m 13.04587,0.27 c 0.19463,-0.12337 0.3137,-0.50844 0.26458,-0.85571 -0.0715,-0.50558 -0.40352,-0.74264 -1.66622,-1.18966 -1.69657,-0.60062 -1.82627,-0.74139 -2.1676,-2.35243 -0.18571,-0.87658 -0.34392,-1.0722 -0.92121,-1.1391 -0.55521,-0.0643 -0.8153,0.11067 -1.27862,0.86034 -0.3199,0.51761 -0.86946,1.01335 -1.22124,1.10164 -0.5349,0.13425 -0.63961,0.32379 -0.63961,1.15778 0,1.19603 0.29242,1.47046 1.839,1.72582 0.64765,0.10693 1.60015,0.35013 2.11667,0.54044 1.07689,0.39677 3.1519,0.48198 3.67425,0.15088 z m -11.92484,-3.80248 c 0.14729,-0.1819 0.3548,-2.16419 0.46114,-4.40508 l 0.19335,-4.07434 -0.85869,0.17174 c -0.47228,0.0945 -1.37959,0.17174 -2.01624,0.17174 -1.11422,0 -1.15756,0.0302 -1.15756,0.80766 0,0.94815 0.7493,4.41019 1.09933,5.07932 0.13322,0.25466 0.46341,0.46302 0.73376,0.46302 0.54046,0 0.81275,0.49478 0.81275,1.47685 0,0.69784 0.31106,0.82916 0.73216,0.30909 z m -8.14275,-1.14814 c 0.6536,-0.51951 1.92461,-1.6409 2.82446,-2.49198 1.25577,-1.18769 1.60278,-1.67484 1.49276,-2.09557 -0.0788,-0.30149 -0.24655,-0.54817 -0.37268,-0.54817 -0.19902,0 -3.18035,2.58523 -5.75617,4.9914 -1.01858,0.9515 -1.03227,1.09473 -0.10434,1.09145 0.43309,-0.002 1.20861,-0.38489 1.91597,-0.94713 z m 15.8322,-1.43155 c 0.39053,0 0.56705,-0.39635 0.9132,-2.05052 0.236,-1.12779 0.50868,-3.02023 0.60595,-4.20543 0.16462,-2.00574 0.14014,-2.16657 -0.35363,-2.32329 -0.29177,-0.0926 -0.83695,-0.0287 -1.21152,0.14192 -0.54689,0.24918 -0.8004,0.23293 -1.28717,-0.0825 -0.53927,-0.34947 -0.68244,-0.34621 -1.29756,0.0296 -0.53819,0.32877 -0.64659,0.54357 -0.48914,0.9692 0.34544,0.93381 1.51109,1.51389 2.66976,1.32861 0.61152,-0.0978 1.02433,-0.0579 1.02433,0.0989 0,0.39941 -1.22281,0.62098 -2.39374,0.43374 l -1.04584,-0.16724 v 3.79549 c 0,2.08752 0.0694,3.86494 0.15434,3.94983 0.0849,0.0849 0.62067,-0.31199 1.19062,-0.88195 0.56996,-0.56995 1.25414,-1.03628 1.5204,-1.03628 z m -2.00547,-7.05808 c -1.14546,-0.23566 -0.57992,-0.48259 1.11654,-0.4875 0.94115,-0.003 1.62561,0.0773 1.52102,0.17785 -0.27022,0.25977 -1.93184,0.45484 -2.63756,0.30965 z m 9.48479,2.79447 c 0.71334,-0.15299 1.29699,-0.37789 1.29699,-0.49979 0,-0.34698 -1.44912,-0.5782 -2.44859,-0.39071 -0.5786,0.10855 -1.26429,0.0199 -1.8995,-0.24547 l -0.99405,-0.41534 0.18235,-1.32587 c 0.16939,-1.23161 0.1425,-1.32588 -0.37818,-1.32588 -0.696,0 -0.94786,0.63353 -1.19928,3.01672 l -0.19264,1.82609 2.16795,-0.1808 c 1.19238,-0.0994 2.7516,-0.30597 3.46495,-0.45895 z m -20.3327,-0.13952 c 0.7439,-0.1399 0.82481,-0.2918 0.73439,-1.37874 -0.0574,-0.68983 -1.70988,-3.01017 -1.9633,-2.75676 -0.0881,0.0881 -0.16016,0.61064 -0.16016,1.16123 0,0.86261 -0.16466,1.1387 -1.19062,1.9963 -0.65484,0.54738 -1.19063,1.09766 -1.19063,1.22283 0,0.21039 2.06136,0.0765 3.77032,-0.24486 z m 9.45885,-0.40673 c 0,-0.95077 -0.53119,-2.59847 -0.83769,-2.59847 -0.11123,0 -0.62309,0.36952 -1.13748,0.82115 -0.72585,0.63731 -0.93524,1.02236 -0.93524,1.7198 v 0.89863 h 1.4552 1.45521 z m -12.68686,-1.15006 c 1.08123,-0.55913 0.98173,-0.96784 -0.21158,-0.86907 -0.79698,0.066 -1.00882,0.19924 -1.07673,0.67743 -0.0992,0.69859 0.217,0.74563 1.28831,0.19164 z m 24.74322,-0.59275 c -0.32956,-0.32956 -3.25946,-0.38025 -3.84566,-0.0665 -0.91963,0.49218 -0.32892,0.76501 1.84378,0.85159 1.47979,0.059 2.00682,-0.0103 2.0736,-0.27237 0.0492,-0.19329 0.017,-0.424 -0.0717,-0.51269 z m -16.67726,0.04 c 0.35868,-0.23502 0.65182,-0.50291 0.65141,-0.59531 -5.3e-4,-0.0924 -0.72848,-0.16801 -1.61795,-0.16801 -1.5265,0 -1.66374,-0.0534 -2.44666,-0.95185 -0.84799,-0.97313 -1.4909,-1.08648 -1.4909,-0.26285 0,0.89368 2.175,2.37547 3.51504,2.39473 0.4053,0.006 1.03038,-0.18169 1.38906,-0.41671 z m 3.54327,-1.53382 c 0.27729,-0.33411 0.21963,-0.42617 -0.35766,-0.57106 -0.8962,-0.22493 -1.47512,0.26944 -1.47512,1.25968 v 0.77937 l 0.7511,-0.53483 c 0.4131,-0.29416 0.89986,-0.71408 1.08168,-0.93316 z m -10.20137,0.4442 c 0.27103,-0.16622 -0.0137,-12.66457 -0.38275,-16.79984 -0.21656,-2.42681 -0.56513,-4.17244 -0.83326,-4.17296 -0.04,-8e-5 -0.0318,2.8701 0.0182,6.37817 0.0685,4.80399 0.0106,6.45299 -0.23443,6.68087 -0.25183,0.2342 -0.29544,0.17776 -0.19304,-0.24982 0.15757,-0.65795 -0.20589,-9.15049 -0.47967,-11.2076 -0.39686,-2.98204 -0.68817,-0.1721 -0.82143,7.92352 -0.0731,4.43838 -0.21506,8.42698 -0.31556,8.86354 -0.14546,0.6319 -0.50089,0.9556 -1.74311,1.5875 -2.59419,1.31962 -2.3285,1.55894 1.47948,1.33258 1.80136,-0.10707 3.37888,-0.25826 3.50558,-0.33596 z m 25.76353,-0.004 c 0.0822,-0.2434 -0.3699,-0.33073 -1.71191,-0.33073 -2.5855,0 -2.82918,-0.23609 -2.61609,-2.53463 0.0934,-1.00705 0.22569,-2.96209 0.29406,-4.34454 l 0.12431,-2.51354 -0.48545,2.64583 c -0.29645,1.6157 -0.79709,3.26392 -1.28587,4.23334 -0.44022,0.87312 -0.87747,1.94468 -0.97166,2.38125 l -0.17125,0.79375 h 3.35611 c 2.44894,0 3.38628,-0.0894 3.46775,-0.33073 z m -17.85324,-0.73715 c 0.5431,-0.36904 0.98746,-0.78576 0.98746,-0.92604 0,-0.35591 -0.30859,-0.30499 -0.91046,0.15025 -0.96336,0.72865 -3.2878,0.22806 -3.67938,-0.79238 -0.22669,-0.59074 -0.90172,-0.49814 -1.10806,0.15201 -0.2151,0.67771 0.31263,1.26936 1.52494,1.70963 1.36829,0.49693 2.1249,0.42723 3.1855,-0.29347 z m -13.16969,-0.59195 c 0.72654,-0.39678 1.29681,-0.84049 1.26725,-0.98601 -0.0724,-0.35651 -1.00668,-0.47946 -2.09372,-0.27553 -0.80783,0.15154 -0.89138,0.25288 -0.89138,1.08126 0,0.50273 0.0893,0.91128 0.19844,0.90788 0.10914,-0.003 0.79288,-0.33083 1.51941,-0.72761 z m 31.355,-0.25841 c 6e-5,-0.54882 -0.11875,-0.595 -1.52129,-0.59126 -1.71725,0.005 -2.33687,0.27117 -2.09502,0.90141 0.13308,0.3468 0.49784,0.41576 1.89057,0.35743 1.59176,-0.0667 1.72568,-0.11847 1.72574,-0.66758 z m -13.76286,-0.55002 c 0.78528,-0.78527 1.32355,-2.2625 1.32604,-3.63919 0.002,-1.11993 -0.55741,-3.81444 -0.79195,-3.81444 -0.25956,0 -0.52439,2.35922 -0.5272,4.69636 -0.001,1.10089 -0.11503,1.91823 -0.26688,1.91823 -0.30849,0 -0.32576,-3.9288 -0.0265,-6.03178 0.24244,-1.70375 -0.009,-1.9247 -1.77866,-1.56318 -1.56434,0.31957 -3.86938,0.28353 -4.53156,-0.0709 -0.54758,-0.29305 -3.93544,-0.37448 -4.62184,-0.11108 -0.35808,0.1374 -0.41851,0.78692 -0.41851,4.49791 0,4.03948 0.0335,4.33732 0.48816,4.33732 0.26849,0 0.68106,-0.21316 0.91684,-0.47369 0.38632,-0.42688 0.39037,-0.60099 0.041,-1.76184 -0.40646,-1.35056 -0.52964,-4.26034 -0.18924,-4.47011 0.10914,-0.0673 0.21615,0.45402 0.2378,1.1584 0.0434,1.41256 0.79342,3.95974 1.16591,3.95974 0.21062,0 0.11935,-1.13621 -0.16557,-2.06105 -0.14892,-0.4834 0.19545,-4.28883 0.38818,-4.28955 0.0878,-2.6e-4 0.11993,0.83682 0.0714,1.86032 -0.15667,3.30618 1.1348,6.07778 2.83203,6.07778 1.4908,0 1.50053,-0.0225 1.40357,-3.24475 -0.0493,-1.63791 0.0315,-3.27 0.1799,-3.63442 0.21216,-0.52102 0.2729,-0.14005 0.28611,1.79444 0.0178,2.60583 0.39037,3.94194 1.39844,5.01497 0.75841,0.80729 1.67898,0.75399 2.58249,-0.14953 z m -2.64124,-0.69114 c 0,-0.22687 0.11906,-0.41249 0.26459,-0.41249 0.14552,0 0.26458,0.11204 0.26458,0.24897 0,0.13693 -0.11906,0.32255 -0.26458,0.41249 -0.14553,0.0899 -0.26459,-0.0221 -0.26459,-0.24897 z m 1.32292,-0.26458 c 0,-0.22687 0.11906,-0.41249 0.26458,-0.41249 0.14552,0 0.26459,0.11203 0.26459,0.24897 0,0.13693 -0.11907,0.32255 -0.26459,0.41249 -0.14552,0.0899 -0.26458,-0.0221 -0.26458,-0.24897 z m -4.7625,-0.13229 c 0,-0.13693 0.11906,-0.32256 0.26458,-0.41249 0.14552,-0.0899 0.26459,0.0221 0.26459,0.24897 0,0.22687 -0.11907,0.41249 -0.26459,0.41249 -0.14552,0 -0.26458,-0.11204 -0.26458,-0.24897 z m -5.02709,-0.92604 c 0,-0.22687 0.11907,-0.41249 0.26459,-0.41249 0.14552,0 0.26458,0.11203 0.26458,0.24896 0,0.13694 -0.11906,0.32256 -0.26458,0.41249 -0.14552,0.0899 -0.26459,-0.0221 -0.26459,-0.24896 z m 8.20209,-0.26459 c 0,-0.20969 0.11906,-0.45484 0.26458,-0.54478 0.14552,-0.0899 0.26459,0.0816 0.26459,0.38126 0,0.29963 -0.11907,0.54478 -0.26459,0.54478 -0.14552,0 -0.26458,-0.17156 -0.26458,-0.38126 z m -3.43958,-0.52916 c 0,-0.22687 0.11906,-0.41249 0.26458,-0.41249 0.14552,0 0.26458,0.11203 0.26458,0.24896 0,0.13694 -0.11906,0.32256 -0.26458,0.41249 -0.14552,0.0899 -0.26458,-0.0221 -0.26458,-0.24896 z m -1.58751,-0.66146 c 0,-0.13693 0.11907,-0.32255 0.26459,-0.41249 0.14552,-0.0899 0.26458,0.0221 0.26458,0.24897 0,0.22687 -0.11906,0.41249 -0.26458,0.41249 -0.14552,0 -0.26459,-0.11204 -0.26459,-0.24897 z m 6.35001,-0.41249 c 0,-0.21828 0.11906,-0.39688 0.26458,-0.39688 0.14552,0 0.26458,0.1786 0.26458,0.39688 0,0.21828 -0.11906,0.39687 -0.26458,0.39687 -0.14552,0 -0.26458,-0.17859 -0.26458,-0.39687 z m -1.19209,-0.92841 c -0.21295,-0.34456 0.0946,-1.32055 0.41617,-1.32055 0.13571,0 0.24675,0.35719 0.24675,0.79375 0,0.78087 -0.33927,1.05047 -0.66292,0.5268 z m -8.5975,-0.36328 c 0,-0.21828 0.11906,-0.47046 0.26458,-0.5604 0.14553,-0.0899 0.26459,0.0151 0.26459,0.23336 0,0.21828 -0.11906,0.47046 -0.26459,0.56039 -0.14552,0.0899 -0.26458,-0.0151 -0.26458,-0.23335 z m 3.80628,-0.27904 c -0.20846,-0.54324 0.0851,-1.28642 0.42519,-1.07626 0.14654,0.0906 0.26645,0.38875 0.26645,0.66261 0,0.65184 -0.48819,0.94381 -0.69164,0.41365 z m 2.01456,-0.0168 c 0,-0.21828 0.11906,-0.39688 0.26458,-0.39688 0.14552,0 0.26458,0.1786 0.26458,0.39688 0,0.21828 -0.11906,0.39687 -0.26458,0.39687 -0.14552,0 -0.26458,-0.17859 -0.26458,-0.39687 z m -0.26459,-1.71979 c 0,-0.74972 0.33633,-1.05524 0.63308,-0.57509 0.19092,0.30892 -0.11831,1.36884 -0.39935,1.36884 -0.12855,0 -0.23373,-0.35719 -0.23373,-0.79375 z m 3.96875,0.1479 c 0,-0.35521 0.11906,-0.71942 0.26459,-0.80936 0.15436,-0.0954 0.26458,0.17364 0.26458,0.64584 0,0.44515 -0.11906,0.80937 -0.26458,0.80937 -0.14553,0 -0.26459,-0.29063 -0.26459,-0.64585 z m -8.85696,-0.66643 c -0.22439,-0.36306 -0.0258,-0.63562 0.36528,-0.50122 0.16014,0.055 0.18061,0.24183 0.0496,0.45268 -0.16537,0.26617 -0.27264,0.27872 -0.41489,0.0485 z m 13.15075,7.99301 c 1.22579,-1.39432 2.3805,-5.26478 2.0326,-6.81303 -0.12717,-0.56592 -0.18735,-0.63218 -0.20967,-0.23083 -0.0172,0.3096 -0.1941,0.69803 -0.39307,0.86316 -0.52211,0.43331 -0.92388,-0.15426 -1.12906,-1.65121 -0.15506,-1.13129 -0.2282,-1.23007 -0.91077,-1.23007 -0.40819,0 -0.8131,0.11476 -0.8998,0.25504 -0.0867,0.14027 0.0254,0.96113 0.24897,1.82412 0.51728,1.99624 0.52074,4.5438 0.008,5.77133 -0.29966,0.7172 -0.32448,1.0438 -0.0999,1.31442 0.40474,0.48768 0.86436,0.45271 1.35284,-0.10293 z m -0.0605,-1.50574 c 0,-0.22687 0.11906,-0.41249 0.26458,-0.41249 0.14552,0 0.26458,0.11203 0.26458,0.24896 0,0.13694 -0.11906,0.32256 -0.26458,0.41249 -0.14552,0.0899 -0.26458,-0.0221 -0.26458,-0.24896 z m -0.1323,-1.73541 c -0.1056,-0.17088 -0.0729,-0.42975 0.0726,-0.57527 0.17639,-0.17639 0.32859,-0.16102 0.4566,0.0461 0.10561,0.17088 0.073,0.42975 -0.0726,0.57528 -0.17639,0.17639 -0.3286,0.16102 -0.45661,-0.0461 z m 1.19063,-0.79375 c 0,-0.14552 0.11906,-0.26458 0.26458,-0.26458 0.14552,0 0.26459,0.11906 0.26459,0.26458 0,0.14552 -0.11907,0.26458 -0.26459,0.26458 -0.14552,0 -0.26458,-0.11906 -0.26458,-0.26458 z m -1.05833,-1.45521 c 0,-0.21828 0.11906,-0.39687 0.26458,-0.39687 0.14552,0 0.26458,0.17859 0.26458,0.39687 0,0.21828 -0.11906,0.39688 -0.26458,0.39688 -0.14552,0 -0.26458,-0.1786 -0.26458,-0.39688 z m -0.79375,-1.85208 c 0,-0.24254 0.12799,-0.39831 0.28442,-0.34616 0.15644,0.0521 0.28443,0.20791 0.28443,0.34616 0,0.13824 -0.12799,0.29402 -0.28443,0.34616 -0.15643,0.0522 -0.28442,-0.10363 -0.28442,-0.34616 z m 5.18237,6.83998 c 0.90939,-1.07881 1.80009,-3.99173 1.80803,-5.913 0.009,-2.20326 -0.2519,-3.17594 -0.85227,-3.17594 -0.56511,0 -1.01151,1.46239 -1.21147,3.96875 -0.0755,0.94588 -0.44093,2.6462 -0.81215,3.77849 -0.37121,1.13228 -0.67493,2.12257 -0.67493,2.20064 0,0.3467 1.24282,-0.26582 1.74279,-0.85894 z m -0.15529,-1.66499 c 0,-0.13693 0.11906,-0.32256 0.26458,-0.41249 0.14552,-0.0899 0.26459,0.0221 0.26459,0.24897 0,0.22687 -0.11907,0.41249 -0.26459,0.41249 -0.14552,0 -0.26458,-0.11204 -0.26458,-0.24897 z m 0.79375,-2.52916 c 0,-0.21828 0.11906,-0.39687 0.26458,-0.39687 0.14552,0 0.26459,0.17859 0.26459,0.39687 0,0.21828 -0.11907,0.39688 -0.26459,0.39688 -0.14552,0 -0.26458,-0.1786 -0.26458,-0.39688 z m 0.26458,-1.83647 c 0,-0.22687 0.11906,-0.41249 0.26459,-0.41249 0.14552,0 0.26458,0.11204 0.26458,0.24897 0,0.13693 -0.11906,0.32255 -0.26458,0.41249 -0.14553,0.0899 -0.26459,-0.0221 -0.26459,-0.24897 z m -0.79375,-0.66145 c 0,-0.13694 0.11906,-0.32256 0.26459,-0.4125 0.14552,-0.0899 0.26458,0.0221 0.26458,0.24897 0,0.22687 -0.11906,0.41249 -0.26458,0.41249 -0.14553,0 -0.26459,-0.11203 -0.26459,-0.24896 z m 0.68341,-1.03844 c -0.11398,-0.18442 -0.13578,-0.40676 -0.0484,-0.49409 0.23679,-0.23679 0.49497,0.11147 0.36708,0.49515 -0.0896,0.26887 -0.15195,0.26866 -0.31864,-0.001 z m -2.98034,7.69041 c 0.70433,-0.77827 1.19793,-2.53784 1.39571,-4.97532 0.15442,-1.90317 0.12322,-2.27056 -0.18402,-2.16703 -0.2604,0.0877 -0.34521,0.47034 -0.28638,1.2919 0.0858,1.19862 -1.05039,5.3633 -1.54697,5.6702 -0.31551,0.195 -0.33859,0.65641 -0.0328,0.65641 0.12297,0 0.41749,-0.21427 0.65449,-0.47616 z m -23.76453,-0.47201 c 0.72761,-0.2273 1.75767,-0.41223 2.28902,-0.41095 l 0.9661,0.002 0.10575,-9.04504 c 0.0938,-8.02158 0.01,-9.85807 -0.4306,-9.41765 -0.0667,0.0667 -0.26381,3.21391 -0.43802,6.99381 -0.45208,9.80887 -0.83793,9.45744 -0.66086,-0.60192 0.13894,-7.89316 0.12355,-8.26823 -0.33935,-8.26823 -0.39709,0 -0.61038,0.51504 -1.17789,2.84427 -1.116,4.58042 -1.72029,7.92781 -2.01803,11.17865 -0.31669,3.45762 -0.36522,6.70624 -0.1041,6.96736 0.23815,0.23815 0.29226,0.23089 1.80798,-0.24262 z m 34.46198,-0.26754 c 0.58051,-0.0886 0.86104,-0.27773 0.8634,-0.58222 0.004,-0.46616 -1.09207,-5.19274 -1.78309,-7.69193 l -0.39266,-1.42007 -0.54625,0.54625 c -0.52881,0.52881 -0.53732,0.66713 -0.26662,4.33049 0.2581,3.49274 0.25204,4.55595 -0.0207,3.62366 -0.0593,-0.20273 -0.24352,-1.55922 -0.40938,-3.01443 -0.43649,-3.82959 -0.41149,-3.77235 -1.63376,-3.7403 l -1.0365,0.0272 v 4.14664 4.14665 l 2.18281,-0.12037 c 1.20055,-0.0662 2.56977,-0.1794 3.04271,-0.25155 z m -11.31093,-6.98637 c 0,-1.39335 0.4036,-1.78303 0.6851,-0.66146 0.22795,0.90824 0.63781,0.83326 0.63781,-0.11668 0,-0.94146 0.45695,-1.32402 0.5764,-0.48256 0.15457,1.08892 0.61551,0.46631 0.54943,-0.74214 -0.0496,-0.90688 0.12116,-1.51447 0.72761,-2.58902 0.88785,-1.5732 0.97575,-2.02273 0.39552,-2.02273 -0.21828,0 -0.39687,0.17157 -0.39687,0.38126 0,0.2097 -0.11727,0.45374 -0.2606,0.54232 -0.1606,0.0993 -0.20114,-0.13627 -0.10564,-0.61375 0.20921,-1.04605 -0.3581,-1.37933 -0.99953,-0.5872 -0.4521,0.55832 -0.48632,0.56439 -0.48632,0.0862 0,-0.28291 -0.0783,-0.59272 -0.17409,-0.68848 -0.29082,-0.29082 -0.88424,0.37766 -0.88424,0.99609 0,0.31945 -0.23532,1.46572 -0.52294,2.54729 -0.70961,2.66844 -0.6987,5.27377 0.0221,5.27377 0.12995,0 0.23628,-0.59531 0.23628,-1.32291 z m 5.20946,-1.52136 c -0.0666,-0.25466 -0.121,-0.0463 -0.121,0.46302 0,0.50933 0.0545,0.71769 0.121,0.46302 0.0666,-0.25466 0.0666,-0.67138 0,-0.92604 z m -12.2902,-0.56443 c -0.0381,-0.34682 0.061,-0.78759 0.2203,-0.97949 0.15926,-0.1919 0.21536,-0.58273 0.12466,-0.86851 -0.0907,-0.28578 -0.0416,-0.59581 0.10911,-0.68895 0.15071,-0.0932 0.27257,-0.54965 0.2708,-1.01446 -0.003,-0.83636 0.12592,-1.89113 0.43537,-3.55707 0.14364,-0.77334 0.0968,-0.85949 -0.46562,-0.85585 -0.34394,0.002 -0.78086,0.10269 -0.97094,0.22324 -0.19008,0.12055 -0.62923,1.57725 -0.9759,3.2371 -0.34666,1.65984 -0.80584,3.50944 -1.02038,4.1102 l -0.39007,1.09231 1.36597,-0.034 c 1.27418,-0.0317 1.36132,-0.0763 1.2967,-0.66455 z m 2.35254,0.47993 c 0.38101,-0.20391 0.6301,-0.19878 0.89174,0.0184 0.26163,0.21714 0.51073,0.22227 0.89173,0.0184 0.29078,-0.15562 0.75579,-0.28294 1.03337,-0.28294 0.55055,0 0.96675,-1.05078 1.25758,-3.175 0.22236,-1.62411 0.89312,-3.13133 1.47585,-3.31628 0.49616,-0.15748 0.93885,-1.64779 0.6808,-2.29192 -0.076,-0.18971 -0.14758,-0.0403 -0.15907,0.33211 -0.0115,0.37237 -0.18769,0.90514 -0.39155,1.18394 -0.34631,0.4736 -0.39045,0.43345 -0.67166,-0.61088 -0.27715,-1.02928 -0.3706,-1.11781 -1.1799,-1.11781 h -0.87891 l 0.0987,4.43177 c 0.11469,5.14792 -0.23958,5.15156 -0.65497,0.007 -0.14951,-1.85169 -0.34729,-3.4888 -0.43951,-3.63802 -0.23676,-0.38309 -1.45069,-0.33804 -1.6013,0.0594 -0.23163,0.6113 -1.37024,8.266 -1.25939,8.46666 0.14561,0.26356 0.27941,0.25108 0.90646,-0.0845 z m -6.29245,-0.46612 c 0.47809,-0.52829 2.13,-5.14131 2.40212,-6.708 0.16476,-0.94865 0.14602,-0.97702 -0.69931,-1.05834 -0.80706,-0.0776 -0.94363,0.0339 -1.92696,1.57291 -0.58208,0.91105 -1.80682,2.72676 -2.72163,4.03489 -1.57584,2.25335 -1.75231,2.68985 -0.85912,2.12493 0.24607,-0.15562 0.51248,-0.14209 0.72826,0.037 0.18715,0.15531 0.69716,0.21101 1.13336,0.12377 0.44724,-0.0894 0.79309,-0.0461 0.79309,0.0993 0,0.42573 0.68135,0.29155 1.15019,-0.22651 z m 19.06406,0.11568 c 0.91928,-0.3841 2.08366,-1.71586 2.39422,-2.73839 0.27704,-0.91215 -0.50782,-0.48148 -1.17103,0.64257 -0.37734,0.63955 -0.95642,1.10053 -1.86427,1.48409 -0.72431,0.30601 -1.31692,0.65182 -1.31692,0.76845 0,0.32923 0.98331,0.25053 1.958,-0.15672 z m -3.26352,-0.43426 c 0.67154,-0.3594 0.69898,-1.57819 0.0355,-1.57819 -0.26194,0 -0.60448,-0.12824 -0.76121,-0.28497 -0.20358,-0.20357 -0.45246,-0.0497 -0.87133,0.53849 -0.47165,0.66237 -0.52343,0.89928 -0.26472,1.21101 0.37646,0.45361 1.13949,0.50019 1.86174,0.11366 z m 2.8901,-0.91522 c 0.81382,-0.42085 1.59042,-1.35449 1.59042,-1.91203 0,-0.19198 -0.57053,0.0723 -1.32291,0.61286 -1.67071,1.20028 -1.74427,0.77067 -0.0889,-0.51904 0.78577,-0.61218 1.06779,-0.96143 0.77636,-0.96143 -1.08694,0 -2.80415,1.37846 -2.80415,2.25098 0,1.02331 0.57482,1.18765 1.84916,0.52866 z m -21.842,-1.87151 c 1.1344,-1.62278 1.20553,-1.82648 1.17612,-3.3682 -0.0469,-2.45771 -0.26659,-3.21389 -0.96259,-3.31302 -0.58735,-0.0837 -0.59361,-0.0504 -0.59361,3.15295 0,1.78063 -0.0483,3.18789 -0.10742,3.12726 -0.0591,-0.0606 -0.23758,-1.40992 -0.39667,-2.99841 -0.15908,-1.58848 -0.33183,-2.93074 -0.38387,-2.98279 -0.052,-0.052 -0.30004,-0.0158 -0.5511,0.0805 -0.38344,0.14714 -0.43275,0.4127 -0.30822,1.65987 0.0815,0.81659 0.22441,2.64392 0.31749,4.06074 0.0931,1.41681 0.26672,2.51579 0.38585,2.44216 0.11913,-0.0736 0.75994,-0.91112 1.42402,-1.8611 z m 19.92279,-0.13527 c 0.18831,-0.36908 0.32594,-1.64981 0.32472,-3.02182 l -0.002,-2.38125 -0.92003,1.70751 c -1.27884,2.37342 -1.27564,4.71593 0.006,4.40111 0.14552,-0.0357 0.41166,-0.35324 0.59142,-0.70555 z m 5.02116,-1.58994 c -0.17422,-0.27897 -0.42825,-0.47005 -0.56451,-0.42463 -0.4405,0.14683 -0.77125,0.89322 -0.59702,1.34726 0.15697,0.40905 0.2185,0.41005 0.82397,0.0133 0.55816,-0.36573 0.60777,-0.50328 0.33756,-0.93596 z m -3.54456,0.61864 c 0.0632,-0.10914 0.19465,-0.85753 0.29216,-1.66309 0.16423,-1.35685 0.13745,-1.46466 -0.36384,-1.46466 -0.4626,0 -0.54406,0.17415 -0.56136,1.20007 -0.0111,0.66005 -0.0601,1.40844 -0.10889,1.6631 -0.0862,0.45051 0.51101,0.6635 0.74193,0.26458 z m 1.44709,-0.55463 c 0.46908,-0.29762 0.68193,-1.84529 0.40224,-2.92468 -0.21921,-0.84595 -0.25731,-0.87052 -0.68566,-0.44217 -0.32635,0.32634 -0.45355,0.8935 -0.45355,2.02215 0,1.56845 0.0992,1.74939 0.73697,1.3447 z m -3.58379,-3.32761 0.9513,-2.49318 -0.72539,-1.79075 c -0.75417,-1.86181 -1.17914,-2.31 -1.42413,-1.50194 -0.079,0.26061 -0.38347,1.10415 -0.67658,1.87452 -0.57777,1.51856 -1.3638,4.73373 -1.3638,5.57846 0,0.51163 0.42238,0.70353 1.73896,0.79004 0.45803,0.0301 0.70502,-0.37459 1.49964,-2.45715 z m -1.63021,1.80967 c 0.0127,-0.30822 0.0754,-0.37092 0.15985,-0.15985 0.0764,0.191 0.067,0.4192 -0.0209,0.50712 -0.0879,0.0879 -0.15045,-0.0683 -0.13896,-0.34727 z m -0.81464,-0.78731 c 0,-0.22687 0.121,-0.33771 0.2689,-0.2463 0.14789,0.0914 0.2004,0.27702 0.11667,0.41249 -0.22681,0.36698 -0.38557,0.29855 -0.38557,-0.16619 z m 1.20192,-0.0984 c -0.0837,-0.13546 -0.0312,-0.32109 0.11668,-0.41249 0.14789,-0.0914 0.2689,0.0194 0.2689,0.2463 0,0.46475 -0.15877,0.53318 -0.38558,0.16619 z m 0.27884,-1.29986 c -0.0916,-0.14815 -0.0375,-0.34904 0.12003,-0.44642 0.40679,-0.25141 0.66925,0.093 0.32966,0.43255 -0.19002,0.19002 -0.33801,0.19458 -0.44969,0.0139 z m -1.06525,-0.80493 c -0.17178,-0.27795 1.66252,-1.74449 1.8933,-1.51371 0.18624,0.18625 -0.65575,1.16526 -1.29761,1.50878 -0.26236,0.14041 -0.51069,0.14246 -0.59569,0.005 z m 0.11366,-1.29294 c 0,-0.4225 1.05353,-1.47604 1.26478,-1.26479 0.0893,0.0893 -0.15875,0.48347 -0.55121,0.87593 -0.39247,0.39247 -0.71357,0.56745 -0.71357,0.38886 z m -14.81667,3.23352 c 0,-1.47687 -0.35739,-3.02907 -0.69742,-3.02907 -0.39768,0 -0.48703,1.71475 -0.18472,3.54499 0.15563,0.94225 0.20114,0.98935 0.52625,0.54474 0.19574,-0.26769 0.35589,-0.74498 0.35589,-1.06066 z m 8.15661,-1.58419 c 2.14993,-0.42512 3.50897,-1.02124 1.89756,-0.83233 -0.50933,0.0597 -2.05714,0.31538 -3.43959,0.56815 -1.38245,0.25278 -3.13862,0.40815 -3.9026,0.34528 -0.89042,-0.0733 -1.38911,-0.0115 -1.3892,0.17204 -1.8e-4,0.3964 4.36709,0.23462 6.83383,-0.25314 z m 12.96875,-1.03012 c 0.96402,-0.93604 1.66855,-1.78613 1.5656,-1.88907 -0.20418,-0.20419 -0.51307,-0.004 -2.54098,1.64832 -0.74265,0.60502 -1.49363,1.14783 -1.66884,1.20624 -0.42608,0.14202 -0.0377,0.73642 0.48118,0.73642 0.22564,0 1.19901,-0.76586 2.16304,-1.70191 z m -20.35021,-0.21632 c 0.0102,-0.25466 -0.10046,-0.46302 -0.24599,-0.46302 -0.14552,0 -0.25621,0.44648 -0.24598,0.99218 0.0149,0.79592 0.0636,0.88751 0.24598,0.46302 0.12507,-0.29104 0.23576,-0.73752 0.24599,-0.99218 z m 7.50718,0.22187 c 0.99002,-0.18847 1.94252,-0.49673 2.11666,-0.68502 0.25423,-0.27487 0.21234,-0.30066 -0.21253,-0.13088 -1.1191,0.44718 -4.3264,0.9042 -6.41615,0.91426 -1.44801,0.007 -2.18281,0.11177 -2.18281,0.31133 0,0.36065 3.9028,0.12182 6.69483,-0.40969 z m 6.23348,-3.30097 c 0.91522,-2.15525 1.00246,-2.73227 0.47883,-3.16684 -0.26985,-0.22396 -0.48619,-0.10888 -0.93397,0.49676 -0.32052,0.43353 -0.78756,0.78445 -1.03786,0.77983 -0.40067,-0.007 -0.4072,-0.047 -0.0546,-0.33073 0.22028,-0.17728 0.61937,-0.66407 0.88686,-1.08176 0.47643,-0.74397 0.47517,-0.77061 -0.062,-1.30776 l -0.54832,-0.54832 -0.42891,1.02651 c -0.73452,1.75796 -0.78998,3.57493 -0.14756,4.83418 0.30847,0.60466 0.57576,1.61013 0.59397,2.23439 l 0.0331,1.13502 0.19519,-1.05833 c 0.10736,-0.58208 0.56871,-1.93791 1.02522,-3.01295 z m -1.02206,-0.0298 c 0,-0.14552 0.11906,-0.26458 0.26458,-0.26458 0.14552,0 0.26459,0.11906 0.26459,0.26458 0,0.14552 -0.11907,0.26459 -0.26459,0.26459 -0.14552,0 -0.26458,-0.11907 -0.26458,-0.26459 z m -0.52917,-0.79375 c 0,-0.14552 0.11906,-0.26458 0.26459,-0.26458 0.14552,0 0.26458,0.11906 0.26458,0.26458 0,0.14552 -0.11906,0.26459 -0.26458,0.26459 -0.14553,0 -0.26459,-0.11907 -0.26459,-0.26459 z m 1.32292,-0.64584 c 0,-0.22687 0.11906,-0.41249 0.26458,-0.41249 0.14552,0 0.26459,0.11204 0.26459,0.24897 0,0.13693 -0.11907,0.32255 -0.26459,0.41249 -0.14552,0.0899 -0.26458,-0.0221 -0.26458,-0.24897 z m -15.9237,4.03447 c 1.79536,-0.56728 2.39731,-0.86376 2.21619,-1.09154 -0.13676,-0.17199 -0.3305,-0.87826 -0.43054,-1.56948 -0.15609,-1.07861 -0.26738,-1.25677 -0.78507,-1.25677 -1.05255,0 -3.10895,0.73946 -3.76169,1.35267 -0.70568,0.66296 -0.80085,0.4346 -0.2329,-0.55892 0.42667,-0.74639 0.50543,-2.06476 0.15627,-2.61609 -0.17773,-0.28066 -0.43178,-0.0937 -1.07848,0.79375 -0.46529,0.63848 -1.08666,1.63713 -1.38081,2.21921 -0.29415,0.58209 -0.77986,1.32579 -1.07935,1.65269 -0.47887,0.52269 -0.50265,0.6726 -0.19724,1.24328 0.19101,0.35691 0.59832,0.69825 0.90512,0.75853 1.04495,0.20531 3.19921,-0.14711 5.6685,-0.92733 z m 22.50879,-0.67665 1.39421,-1.25677 -1.83388,-2.2775 c -1.00863,-1.25262 -2.29796,-2.97813 -2.86517,-3.83446 -1.26548,-1.91052 -3.6898,-4.37166 -5.33236,-5.41334 -0.67457,-0.4278 -1.32224,-0.77782 -1.43927,-0.77782 -0.43855,0 -0.1925,0.76453 0.29594,0.91955 0.98778,0.31351 5.21443,5.09195 7.36702,8.3288 l 2.17058,3.26389 -0.92212,1.02068 c -0.50717,0.56138 -0.92212,1.07987 -0.92212,1.15221 0,0.43804 0.87814,-0.0354 2.08717,-1.12524 z m -16.15947,0 c 0.0456,-0.47294 0.003,-0.85989 -0.0942,-0.85989 -0.0974,0 -0.64307,0.36903 -1.21256,0.82007 -0.57747,0.45737 -1.20867,0.75359 -1.42713,0.66976 -0.21544,-0.0827 -0.39171,-0.029 -0.39171,0.11917 0,0.16088 0.61313,0.23751 1.52135,0.19014 1.50409,-0.0785 1.5223,-0.0891 1.60427,-0.93925 z m 3.15823,0.40071 c 0.1819,-0.14688 0.33073,-0.74147 0.33073,-1.32131 0,-0.89589 -0.0695,-1.02734 -0.46302,-0.87511 -0.25466,0.0985 -0.79292,0.2457 -1.19613,0.32706 -0.86084,0.17371 -0.86304,0.1767 -1.10111,1.49476 l -0.18393,1.0183 1.14137,-0.18832 c 0.62775,-0.10357 1.29019,-0.30849 1.47209,-0.45538 z m -2.59698,-2.31851 c 0.51884,-0.14414 1.21714,-0.26272 1.55179,-0.26353 0.85047,-0.002 2.16967,-0.73102 2.16967,-1.1989 0,-0.48026 -0.20867,-0.47891 -1.05833,0.007 -0.81571,0.4663 -1.13456,0.49325 -0.99826,0.0844 0.0573,-0.17187 0.50651,-0.44797 0.99826,-0.61354 0.49175,-0.16557 0.94097,-0.44166 0.99826,-0.61354 0.17118,-0.51353 -0.87412,-0.35401 -1.64291,0.25072 -0.50529,0.39746 -0.79872,0.4805 -0.99705,0.28217 -0.30332,-0.30332 0.98917,-1.24964 2.10472,-1.54101 0.32742,-0.0855 0.59531,-0.27783 0.59531,-0.42736 0,-0.49962 -2.40526,0.0396 -3.84103,0.86101 -0.76658,0.43859 -2.06141,0.93152 -2.87741,1.0954 -1.12127,0.22518 -1.48364,0.41075 -1.48364,0.75974 0,0.25607 0.26519,0.53157 0.59531,0.61845 l 0.59531,0.15667 -0.59531,0.41836 c -0.7915,0.55623 -0.75269,0.91752 0.0985,0.91752 0.54572,0 0.6318,0.0748 0.40317,0.35025 -0.21159,0.25495 -0.20962,0.43132 0.007,0.64816 0.22082,0.22083 0.57415,0.0615 1.36547,-0.61588 0.58717,-0.50259 1.49207,-1.03173 2.0109,-1.17586 z m 5.18797,1.78275 c 0.0274,-0.0349 0.41951,-1.49213 0.87126,-3.23838 0.45175,-1.74625 0.89842,-3.44314 0.99259,-3.77087 0.14388,-0.5007 0.0197,-0.65915 -0.77732,-0.99218 -0.5217,-0.21798 -1.05241,-0.39633 -1.17937,-0.39633 -0.36882,0 -0.92333,2.7376 -0.78292,3.86528 0.0705,0.56623 -0.0168,1.32717 -0.1941,1.69097 -0.17726,0.3638 -0.39831,1.24184 -0.49122,1.95119 l -0.16892,1.28974 0.84006,-0.16801 c 0.46203,-0.0924 0.8625,-0.19654 0.88994,-0.23141 z m 8.7861,-0.18074 c 0.32742,-0.27315 0.59531,-0.58391 0.59531,-0.69059 0,-0.57238 -4.21124,-6.41738 -5.97274,-8.28986 -2.15036,-2.28585 -3.08581,-2.94074 -4.20058,-2.94074 -0.85844,0 -0.84867,0.32677 0.053,1.77301 0.51857,0.83176 0.95563,1.21309 1.52135,1.32738 0.50747,0.10252 1.46323,0.83674 2.64996,2.03571 1.47879,1.49405 2.12435,2.42552 3.175,4.58114 0.72533,1.48818 1.37832,2.70461 1.45108,2.70318 0.0728,-0.001 0.40018,-0.22609 0.72761,-0.49923 z m -27.73175,-0.39176 c 0.19524,-0.23525 0.24605,-0.73225 0.13524,-1.32291 -0.1859,-0.99094 -0.64777,-1.3084 -0.64777,-0.44524 0,0.87603 -0.77825,0.8926 -1.27076,0.027 -0.52799,-0.92791 -0.96356,-1.05179 -0.6933,-0.19717 0.26191,0.82824 0.89403,1.75111 1.4032,2.0486 0.58211,0.34012 0.71051,0.32693 1.07339,-0.11032 z m 1.30737,-2.14158 c 0.96868,-1.6418 4.93381,-6.81671 6.64391,-8.67102 1.67713,-1.81855 1.93667,-2.50087 0.62416,-1.64088 -1.14474,0.75006 -5.26308,4.8169 -6.38792,6.30802 -1.79659,2.38164 -2.12806,3.10685 -1.86249,4.07489 0.12975,0.47294 0.28027,0.85989 0.3345,0.85989 0.0542,0 0.34575,-0.4189 0.64784,-0.9309 z m -1.80213,-0.71706 c 0.52959,-1.30504 2.2841,-3.79211 3.93412,-5.57675 1.51722,-1.641 4.62208,-4.41752 5.48272,-4.90292 0.33855,-0.19095 0.40323,-0.35986 0.21193,-0.55341 -0.43944,-0.44463 -4.25213,1.88588 -6.15354,3.76135 -1.93809,1.91165 -4.81591,5.97462 -4.81591,6.7992 0,0.71992 0.48729,1.64844 0.77257,1.47212 0.11927,-0.0737 0.37492,-0.52353 0.56811,-0.99959 z m 9.57693,-0.52084 1.05713,-0.31673 -0.14518,-1.91967 c -0.11943,-1.57904 -0.29208,-2.13317 -0.973,-3.12286 -0.4553,-0.66175 -0.9204,-1.20319 -1.03357,-1.20319 -0.32639,0 -1.25335,1.09808 -1.88003,2.22706 -0.51242,0.92317 -0.52953,1.06205 -0.15656,1.27078 0.28646,0.16031 0.3674,0.43886 0.25623,0.88179 -0.10616,0.42297 -0.0501,0.64746 0.16163,0.64746 0.19883,0 0.26805,0.21441 0.17907,0.55468 -0.33765,1.29117 0.46337,1.60114 2.53428,0.98068 z m -1.60615,-0.82498 c -0.17359,-0.40966 -0.31563,-0.86206 -0.31563,-1.00533 0,-0.14327 -0.18578,-0.61977 -0.41285,-1.05887 -0.22707,-0.43911 -0.36453,-0.99874 -0.30547,-1.24363 0.17262,-0.71572 1.56372,2.47393 1.44871,3.32176 l -0.0991,0.7309 z m 4.79847,0.0169 c 0.42142,-0.30815 0.42369,-0.42882 0.0329,-1.74492 -0.26681,-0.89844 -0.81151,-1.83875 -1.49419,-2.57937 -1.35539,-1.47042 -1.69424,-1.48518 -0.94146,-0.041 0.383,0.73477 0.62111,1.74343 0.68707,2.91041 0.0922,1.63205 0.151,1.78594 0.68196,1.78594 0.31957,0 0.78476,-0.14897 1.03377,-0.33105 z m 0.35691,-5.33705 c -0.51225,-0.47475 -0.72338,-0.53163 -1.05987,-0.28559 -0.37685,0.27556 -0.35584,0.40197 0.20365,1.22533 0.34311,0.50494 0.7846,1.44796 0.98109,2.09561 l 0.35725,1.17754 0.0788,-1.81003 c 0.0709,-1.62782 0.0144,-1.86971 -0.5609,-2.40286 z m 3.95841,3.64821 c 1.01299,-0.1486 1.10694,-0.23258 1.25386,-1.12089 0.2361,-1.42757 0.19826,-2.15089 -0.11254,-2.15089 -0.36417,0 -2.73611,2.37846 -3.1579,3.16658 -0.30812,0.57574 -0.28921,0.60386 0.2962,0.44042 0.34393,-0.096 1.1181,-0.24687 1.72038,-0.33522 z m 0.68383,-4.26396 c -0.17152,-0.49032 -0.70658,-0.40171 -1.25878,0.20846 -0.36278,0.40086 -0.67874,0.49729 -1.23163,0.37585 l -0.74367,-0.16334 v 1.57704 1.57703 l 1.67489,-1.62215 c 0.92118,-0.89219 1.62282,-1.77099 1.55919,-1.95289 z m -6.591,-0.37289 c -0.0807,-0.42001 -0.35639,-0.76146 -0.684,-0.84713 -0.99998,-0.2615 -1.0789,0.16578 -0.16795,0.90926 0.49401,0.40318 0.91821,0.71246 0.94267,0.68727 0.0244,-0.0252 -0.0164,-0.36241 -0.0907,-0.7494 z m 3.01101,0.0176 c 0.20907,-0.20907 0.45595,-0.1998 0.89187,0.0335 0.51036,0.27314 0.65669,0.24886 0.95445,-0.15835 0.19342,-0.26452 0.35167,-0.56402 0.35167,-0.66556 0,-0.10154 0.2083,-0.16808 0.4629,-0.14787 0.2931,0.0233 0.49395,-0.18161 0.54756,-0.55856 0.0658,-0.46267 0.25744,-0.59531 0.86003,-0.59531 0.6871,0 0.77535,-0.0914 0.77535,-0.80306 0,-0.44168 0.19267,-1.09713 0.42817,-1.45654 0.34328,-0.52391 0.36356,-0.73132 0.10231,-1.04611 -0.4411,-0.5315 -0.79507,-0.25698 -0.79507,0.61661 0,0.39559 -0.17831,0.97384 -0.39625,1.28499 -0.58405,0.83385 -3.53549,2.72702 -4.2514,2.72702 -0.80493,0 -2.16516,-1.94051 -2.45764,-3.5061 -0.11752,-0.62903 -0.34352,-1.37572 -0.50223,-1.65932 -0.27143,-0.48502 -0.29914,-0.47355 -0.46647,0.19318 -0.0978,0.38986 -0.0919,0.84797 0.0132,1.01803 0.1051,0.17006 0.0415,0.40164 -0.14128,0.51462 -0.45763,0.28283 -0.0874,0.79375 0.57521,0.79375 0.51736,0 0.52307,0.0319 0.11668,0.65215 -0.58883,0.89867 -0.54248,1.29177 0.13153,1.11552 0.49318,-0.12897 0.54132,-0.0586 0.40974,0.59936 -0.19476,0.97376 0.009,1.13799 0.78154,0.63148 0.59653,-0.39086 0.63113,-0.38285 0.63113,0.14606 0,0.60112 0.50624,0.74128 0.97701,0.27051 z m 1.43126,-1.91303 c 0.58546,-0.40026 0.8731,-0.79245 0.82471,-1.12448 -0.0409,-0.28042 -0.1004,-1.1647 -0.13229,-1.96506 -0.0319,-0.80037 -0.17704,-1.45089 -0.32256,-1.44561 -0.14552,0.005 -1.12727,0.1066 -2.18167,0.22517 l -1.91708,0.21558 0.16794,1.09774 c 0.19519,1.27586 0.61681,2.18082 1.40512,3.01597 0.70705,0.74907 1.03622,0.74612 2.15583,-0.0193 z m -1.61452,-0.12988 c 0,-0.13868 0.30238,-0.30995 0.67195,-0.3806 0.42405,-0.0811 0.63602,-0.0192 0.57459,0.1676 -0.12078,0.36724 -1.24654,0.55961 -1.24654,0.213 z m -0.16274,-0.95922 c -0.0804,-0.20944 -0.0207,-0.5964 0.13256,-0.8599 0.25489,-0.43819 0.27936,-0.42827 0.28672,0.11622 0.004,0.32743 0.12711,0.59532 0.27263,0.59532 0.14552,0 0.26458,0.11906 0.26458,0.26458 0,0.40878 -0.79195,0.31256 -0.95649,-0.11622 z m -1.16017,-1.73586 c 0,-0.14552 0.23812,-0.26459 0.52916,-0.26459 0.29104,0 0.52917,0.11907 0.52917,0.26459 0,0.14552 -0.23813,0.26458 -0.52917,0.26458 -0.29104,0 -0.52916,-0.11906 -0.52916,-0.26458 z m 2.11666,0.0283 c 0,-0.2682 0.80587,-0.63355 0.99041,-0.44901 0.0665,0.0665 0.0424,0.2479 -0.0535,0.4031 -0.21108,0.34155 -0.93692,0.37712 -0.93692,0.0459 z m -1.98437,-0.82205 c 0.0899,-0.14552 0.33509,-0.26459 0.54478,-0.26459 0.20969,0 0.38126,0.11907 0.38126,0.26459 0,0.14552 -0.24515,0.26458 -0.54478,0.26458 -0.29963,0 -0.4712,-0.11906 -0.38126,-0.26458 z m 1.98437,0.0283 c 0,-0.33075 0.7469,-0.58274 0.91605,-0.30905 0.0766,0.12391 -0.0484,0.2973 -0.27775,0.38532 -0.55463,0.21283 -0.6383,0.20283 -0.6383,-0.0763 z m 3.17681,1.55483 c 0.29792,-0.71925 0.22808,-2.49978 -0.11137,-2.83923 -0.0727,-0.0727 -0.31593,-0.0617 -0.54048,0.0245 -0.2919,0.11201 -0.40829,0.52999 -0.40829,1.46625 0,2.18543 0.46728,2.7798 1.06014,1.34849 z m 1.18137,-3.39246 c -0.57286,-0.11905 -0.70409,0.048 -0.4854,0.61795 0.17164,0.44727 0.20023,0.4458 0.54866,-0.0283 0.31967,-0.43496 0.31143,-0.51181 -0.0633,-0.58968 z m -2.76988,-0.0572 c 2.59177,-0.60847 3.80225,-1.46438 3.27062,-2.3126 -0.39428,-0.62908 -1.26267,-0.69827 -2.07594,-0.1654 -1.4159,0.92774 -4.12348,0.93368 -5.96882,0.0131 -0.63108,-0.31483 -0.84733,-0.30893 -1.57379,0.0429 -0.4632,0.22433 -1.0289,0.69284 -1.2571,1.04112 -0.35604,0.54337 -0.36219,0.68457 -0.0434,0.99486 1.03478,1.00707 4.30089,1.17191 7.6484,0.38601 z m 0.23708,-2.99613 c 0.22156,-0.26697 0.22581,-0.56684 0.0158,-1.1191 -0.36396,-0.9573 -0.68282,-1.15297 -1.88706,-1.15799 -1.01251,-0.004 -2.59999,1.03435 -2.59999,1.70098 0,0.7759 3.88948,1.27705 4.47121,0.57611 z m -31.51795,63.39323 0.0807,-2.41428 -0.829058,-0.42872 c -1.108812,-0.57339 -1.260592,-0.32607 -0.415932,0.67775 0.381909,0.45388 0.69438,1.11375 0.69438,1.46639 0,0.61742 -0.06855,0.64115 -1.852083,0.64115 -1.654168,0 -1.852083,-0.0546 -1.852083,-0.51133 0,-0.28714 0.243701,-0.58869 0.5558,-0.68775 0.373693,-0.1186 0.468365,-0.26384 0.288942,-0.44326 -0.179422,-0.17942 -0.593439,-0.15908 -1.263597,0.0621 -0.876512,0.28927 -0.943278,0.36804 -0.553525,0.65304 0.665967,0.48696 0.536816,0.84233 -0.372196,1.02414 -1.25743,0.25148 -1.921949,-0.22829 -1.725529,-1.24581 0.08871,-0.45953 0.399049,-1.03318 0.689652,-1.27479 0.659672,-0.54845 0.668206,-0.75134 0.0316,-0.75134 -0.823079,0 -1.024166,0.54764 -1.141542,3.10886 -0.104087,2.27124 0.04363,3.00807 0.411075,2.05052 0.123288,-0.32129 0.738125,-0.39688 3.228078,-0.39688 2.873809,0 3.085055,0.0355 3.216992,0.53999 0.07766,0.29699 0.273164,0.496 0.434436,0.44224 0.17776,-0.0593 0.32501,-1.04853 0.37391,-2.51202 z m 59.41022,1.9563 c 0.12244,-0.3191 1.68829,-0.87113 5.86881,-2.06904 0.58208,-0.16679 1.1606,-0.35675 1.28558,-0.42212 0.23149,-0.12108 -1.143,-0.67564 -4.46058,-1.79971 -1.05921,-0.35888 -2.10077,-0.91114 -2.433,-1.29002 -0.56304,-0.6421 -0.8295,-0.61966 -0.72609,0.0611 0.0276,0.1819 0.0651,0.57588 0.0833,0.87551 0.0188,0.3101 0.15353,0.47034 0.3127,0.37197 0.15378,-0.095 0.5705,-0.0998 0.92604,-0.0106 0.53157,0.13341 0.64642,0.32687 0.64642,1.08891 0,0.74748 -0.13664,0.98893 -0.7066,1.24862 -0.55816,0.25431 -0.72953,0.25312 -0.8158,-0.006 -0.26026,-0.7808 -0.59427,-0.22139 -0.59427,0.9953 0,1.25984 0.3109,1.74416 0.61348,0.95567 z m 1.95362,-3.01316 c -0.11266,-0.58937 -0.0577,-0.62886 0.67255,-0.48281 0.43738,0.0875 0.89943,0.15905 1.02676,0.15905 0.5682,0 0.14898,0.42551 -0.67255,0.68265 -0.84612,0.26483 -0.91192,0.24183 -1.02676,-0.35889 z m 4.54102,-2.77116 c -0.0323,-0.1819 0.1688,-0.78923 0.44701,-1.34962 l 0.50584,-1.01889 -0.72741,-0.62569 c -1.40608,-1.20947 -3.72788,-1.40715 -5.9232,-0.50433 -1.59928,0.65771 -1.77899,2.16531 -0.34642,2.90612 1.23989,0.64117 1.49717,0.45102 0.51357,-0.37956 l -0.91605,-0.77353 1.05833,-0.45518 c 1.53225,-0.659 4.67298,-0.83278 5.12862,-0.28377 0.30053,0.36212 0.23561,0.51835 -0.45789,1.10189 -0.88146,0.7417 -0.86231,1.35197 0.048,1.5295 0.31511,0.0615 0.60792,0.12794 0.65068,0.14776 0.0428,0.0198 0.0513,-0.1128 0.0189,-0.2947 z m -70.78627,-0.22569 c 0.352276,-0.1605 0.905546,-0.76341 1.229489,-1.33979 0.622761,-1.10805 2.046467,-1.99572 2.761068,-1.7215 0.25594,0.0982 0.420923,0.47391 0.420923,0.95853 0,0.62949 -0.139032,0.83191 -0.661458,0.96303 -0.819797,0.20576 -0.841089,0.47103 -0.06615,0.82412 0.962278,0.43844 1.098448,0.29033 1.186848,-1.29087 0.0732,-1.30894 0.008,-1.55488 -0.5111,-1.91823 -0.327283,-0.22924 -1.058819,-0.41679 -1.625643,-0.41679 -0.844144,0 -1.204457,0.17975 -1.99165,0.99355 -0.528583,0.54645 -1.202152,1.33689 -1.496819,1.75652 -0.421766,0.60064 -0.661022,0.72322 -1.124479,0.57613 -0.742581,-0.23569 -0.764024,-1.05674 -0.04083,-1.56328 l 0.547893,-0.38376 -0.606764,-0.425 c -0.33372,-0.23374 -0.669569,-0.42414 -0.74633,-0.42309 -0.07676,0.001 -0.167786,0.58893 -0.202278,1.30641 -0.05439,1.13145 0.02932,1.37691 0.630994,1.85019 0.781561,0.61477 1.363031,0.67905 2.296279,0.25383 z m 2.427106,-4.50217 c 3.011254,-0.83405 3.318484,-2.77117 0.595312,-3.75359 -0.709503,-0.25597 -0.553574,0.0982 0.396875,0.90134 l 0.859896,0.72666 -1.058333,0.45306 c -1.482559,0.63466 -4.345783,0.80665 -5.016116,0.3013 -0.503986,-0.37994 -0.494977,-0.41019 0.328468,-1.10307 0.698767,-0.58798 0.799218,-0.80109 0.575036,-1.21998 -0.149397,-0.27915 -0.512594,-0.50755 -0.807104,-0.50755 -0.29451,0 -0.467537,0.10992 -0.384505,0.24427 0.08303,0.13435 -0.09632,0.6634 -0.398572,1.17567 -0.435153,0.73754 -0.489601,1.0434 -0.26158,1.46946 0.67523,1.26168 3.116581,1.88136 5.170623,1.31243 z m 69.104664,-1.07105 c -0.0291,-0.82097 -0.18054,-1.41114 -0.37914,-1.47726 -0.1819,-0.0606 -0.33073,0.0784 -0.33073,0.30881 0,0.35879 -0.45353,0.41892 -3.15938,0.41892 -1.85467,0 -3.22802,-0.11104 -3.32558,-0.2689 -0.30072,-0.48658 -0.65879,0.0191 -0.65879,0.93036 0,0.87955 0.53069,1.58293 0.73404,0.97289 0.16742,-0.50228 5.98632,-0.42471 6.40971,0.0854 0.57355,0.69109 0.75968,0.43666 0.70987,-0.97026 z m -6.45789,-2.27677 c -0.32375,-0.25142 -0.62141,-0.75479 -0.66146,-1.11859 l -0.0728,-0.66146 3.37344,-0.074 c 2.18574,-0.048 3.37343,0.0219 3.37343,0.19844 0,0.14987 0.11907,0.27249 0.26459,0.27249 0.28892,0 0.37178,-2.45044 0.0923,-2.72992 -0.0948,-0.0948 -0.30618,0.0109 -0.46984,0.23467 -0.31764,0.4344 -1.05247,0.50299 -4.564,0.42601 -1.82009,-0.0399 -2.18028,-0.12091 -2.26969,-0.51045 -0.0584,-0.25466 -0.20209,0.47949 -0.31919,1.63145 -0.18992,1.86834 -0.1608,2.13258 0.26974,2.4474 0.26546,0.19411 0.72778,0.35027 1.02739,0.34703 0.53341,-0.006 0.5325,-0.0154 -0.0439,-0.46302 z M 93.387225,156.5953 c 0.181758,-0.29104 0.560234,-0.52917 0.841057,-0.52917 0.280823,0 1.440673,-0.28842 2.577445,-0.64094 1.136773,-0.35251 2.411502,-0.71629 2.832734,-0.80839 1.159989,-0.25363 0.596899,-0.59195 -2.900032,-1.74241 -1.713878,-0.56385 -3.207936,-1.17371 -3.320129,-1.35524 -0.469502,-0.75968 0.327484,-1.00927 3.222721,-1.00927 2.59563,0 2.898855,0.0512 3.246748,0.54785 0.357911,0.51099 0.393011,0.44422 0.521591,-0.99218 0.25758,-2.87727 0.24391,-2.95017 -0.638702,-3.40659 -1.013937,-0.52433 -1.315667,-0.29067 -0.548089,0.42444 0.341161,0.31784 0.576058,0.85614 0.576058,1.32012 0,0.78161 -0.0037,0.78345 -1.595804,0.78345 -1.204836,0 -1.634788,-0.10159 -1.754923,-0.41466 -0.08752,-0.22807 -0.02425,-0.54954 0.140595,-0.71438 0.507572,-0.50757 0.33607,-0.70251 -0.522463,-0.59385 -1.065049,0.13479 -1.232616,0.3257 -0.655969,0.74735 0.718098,0.52509 -0.02304,0.99921 -1.250561,0.80001 -1.18323,-0.19201 -1.26017,-0.68897 -0.267143,-1.72547 0.871765,-0.90992 0.606361,-1.30389 -0.381916,-0.56692 -0.707896,0.52789 -0.724867,0.60581 -0.798199,3.66444 -0.04556,1.9002 0.03222,3.23223 0.198438,3.39845 0.188093,0.18809 0.273362,0.17432 0.273362,-0.0441 0,-0.17463 0.283983,-0.3175 0.631075,-0.3175 0.76855,0 3.337675,0.80631 3.337675,1.04752 0,0.29735 -3.552328,1.1108 -4.037607,0.92459 -0.384927,-0.14772 -0.46031,-0.0204 -0.46031,0.77771 0,1.07044 0.24173,1.21078 0.732348,0.42518 z m 69.371955,-3.60382 c 0.7657,-0.6443 0.85762,-0.66304 1.2979,-0.26458 0.26061,0.23585 0.84867,0.42882 1.30681,0.42882 1.14632,0 1.69988,-0.9179 1.80542,-2.9937 0.10212,-2.00842 -0.17132,-4.57038 -0.44119,-4.13372 -0.15135,0.24489 -0.63543,0.2119 -2.07799,-0.14162 -1.03437,-0.25349 -1.88067,-0.55429 -1.88067,-0.66846 0,-0.29542 3.62311,-1.14606 4.10074,-0.96277 0.31009,0.11899 0.39534,-0.0633 0.38877,-0.83147 -0.007,-0.84061 -0.0563,-0.92093 -0.33749,-0.55153 -0.34674,0.4556 -1.34613,0.83462 -4.81348,1.82553 -1.16416,0.33271 -2.21906,0.69422 -2.34422,0.80337 -0.12516,0.10914 1.18453,0.62881 2.91041,1.1548 3.55873,1.08459 3.93173,1.25212 3.93173,1.7659 0,0.2921 -0.72337,0.38327 -3.50573,0.44187 -2.27451,0.0479 -3.50573,-0.0218 -3.50573,-0.19844 0,-0.14975 -0.13472,-0.27226 -0.29938,-0.27226 -0.42542,0 -0.14987,3.8243 0.31599,4.38563 0.86805,1.04594 2.06194,1.12658 3.14811,0.21263 z m -2.10638,-1.23535 c -0.36381,-0.1834 -0.69692,-0.57862 -0.74026,-0.87827 -0.0713,-0.49274 0.0719,-0.55025 1.49769,-0.6017 1.60875,-0.0581 2.00969,0.13894 1.73575,0.85282 -0.11228,0.2926 -1.4633,1.0145 -1.80506,0.9645 -0.0147,-0.002 -0.32432,-0.15395 -0.68812,-0.33735 z m 3.4492,-0.5732 c -0.51628,-0.62208 -0.069,-0.93763 1.32891,-0.93763 1.10629,0 1.3073,0.077 1.3073,0.50086 0,0.84847 -2.01716,1.18268 -2.63621,0.43677 z m -63.536,-7.60336 c 0.0223,-1.2736 -0.0645,-1.56999 -0.56166,-1.91823 -1.01979,-0.71428 -1.374065,-0.48672 -0.626107,0.40218 1.078127,1.28128 0.926637,1.46912 -1.339317,1.66066 -3.249656,0.2747 -4.369223,0.21375 -4.900184,-0.26676 -0.462737,-0.41877 -0.483855,-0.37904 -0.483855,0.91043 0,1.44876 0.272736,1.87502 0.796168,1.24433 0.250814,-0.30221 0.961367,-0.39396 3.051048,-0.39396 3.008752,0 3.548527,0.11373 3.587487,0.75591 0.0595,0.98121 0.45184,-0.9906 0.47642,-2.39456 z m 66.01221,-1.27905 c 0.37644,-0.36121 0.53352,-0.9809 0.6301,-2.48589 0.0893,-1.39124 0.037,-2.00475 -0.17072,-2.00475 -0.16466,0 -0.29938,0.1786 -0.29938,0.39688 0,0.33242 -0.55856,0.39687 -3.43958,0.39687 -2.93889,0 -3.43958,-0.06 -3.43958,-0.41249 0,-0.22687 -0.11907,-0.3389 -0.26459,-0.24897 -0.32839,0.20296 -0.35224,2.69272 -0.0277,2.89329 0.13027,0.0805 0.30513,-0.0315 0.38857,-0.24897 0.10588,-0.27591 0.54125,-0.39536 1.44105,-0.39536 1.26816,0 1.29439,0.0169 1.59665,1.0257 0.51637,1.7235 2.34297,2.27562 3.5852,1.08369 z m -2.35354,-0.70218 c -0.52997,-0.12913 -1.19062,-0.79121 -1.19062,-1.19319 0,-0.11771 0.83343,-0.21402 1.85208,-0.21402 1.39674,0 1.85208,0.0896 1.85208,0.36448 0,0.73848 -1.39207,1.31598 -2.51354,1.04273 z m -63.89688,-1.15824 c 0,-0.48255 -0.10892,-0.74204 -0.26975,-0.64265 -0.148368,0.0917 -0.684149,0.03 -1.190627,-0.13719 -0.775008,-0.25578 -0.920869,-0.42771 -0.920869,-1.08545 0,-0.86963 0.417502,-1.13534 1.783922,-1.13534 0.839194,0 0.861914,-0.03 0.861914,-1.13771 0,-1.09536 -0.32689,-1.51729 -0.607993,-0.78476 -0.07449,0.19412 -1.129026,0.62711 -2.343412,0.9622 -3.448431,0.95154 -4.721515,1.37628 -4.721515,1.57522 0,0.10099 0.565547,0.37407 1.256771,0.60683 4.086641,1.37615 5.513289,1.93765 5.701689,2.24408 0.32984,0.53647 0.44987,0.41234 0.44987,-0.46523 z m -3.646315,-1.66115 c -0.692093,-0.38423 -0.517926,-0.70448 0.383125,-0.70448 0.440972,0 0.617361,0.15119 0.617361,0.52916 0,0.61021 -0.165039,0.63913 -1.000486,0.17532 z m 65.865645,-5.25121 c 1.21369,-0.44375 2.77353,-0.98081 3.4663,-1.19348 0.69276,-0.21266 1.19175,-0.4964 1.10886,-0.63052 -0.0829,-0.13412 -0.26666,-0.24386 -0.40836,-0.24386 -0.71949,0 -5.99393,-2.30239 -6.48276,-2.82984 -0.76288,-0.82316 -0.95009,-0.76819 -0.8519,0.25016 0.0696,0.72219 0.18104,0.8493 0.69567,0.79377 1.13987,-0.12299 1.6362,0.37275 1.6362,1.63425 0,1.02562 -0.0771,1.17198 -0.69973,1.32825 -0.38632,0.097 -0.8248,0.0505 -0.97896,-0.10361 -0.48153,-0.48153 -0.57143,-0.31594 -0.53081,0.97771 0.0564,1.79678 0.071,1.83681 0.47422,1.30487 0.2005,-0.26449 1.35758,-0.84396 2.57127,-1.2877 z m -0.18748,-2.1268 c -0.0933,-0.42496 -0.1137,-0.82865 -0.0453,-0.89709 0.16547,-0.16547 2.30717,0.69793 2.30717,0.9301 0,0.0997 -0.47075,0.30684 -1.04611,0.46042 -1.0262,0.27391 -1.04932,0.26452 -1.2158,-0.49343 z m -61.66446,0.27581 c -0.10616,-0.17177 -0.17192,-0.85638 -0.14613,-1.52136 0.052,-1.34152 -0.0851,-1.64999 -0.931466,-2.09548 -1.050218,-0.55279 -1.68523,-0.3379 -3.084261,1.04375 -1.557503,1.53816 -2.436634,1.99052 -2.984587,1.53576 -0.552712,-0.45871 -0.456532,-1.2962 0.14886,-1.2962 0.824322,0 0.904578,-0.50607 0.127133,-0.80165 -0.846292,-0.32176 -0.791293,-0.36692 -1.006736,0.82668 -0.258166,1.43029 0.557755,2.35622 2.076294,2.35622 1.017496,0 1.288353,-0.14492 2.472561,-1.32292 1.397733,-1.3904 1.773488,-1.53685 2.527901,-0.98521 0.574971,0.42043 0.339921,1.13887 -0.445153,1.36064 l -0.57701,0.16299 0.624624,0.52454 c 0.68413,0.57451 1.51257,0.72128 1.19797,0.21224 z m 65.73629,-3.45801 c -0.0359,-0.1819 0.14105,-0.71876 0.39331,-1.19302 0.57579,-1.08249 0.30628,-1.66912 -1.06598,-2.32031 -3.28862,-1.56055 -8.4573,1.02761 -5.56902,2.78862 1.30122,0.79337 1.76196,0.63462 0.71761,-0.24726 l -0.91605,-0.77354 1.02764,-0.43546 c 1.53051,-0.64853 4.39408,-0.81723 5.05777,-0.29795 0.51984,0.40672 0.51401,0.42614 -0.33072,1.10184 -1.01489,0.8118 -1.0701,1.1112 -0.26459,1.43498 0.83237,0.33457 1.02526,0.32281 0.95003,-0.0579 z m -69.675551,-1.67631 c 1.74625,-0.40163 3.272891,-0.81351 3.392541,-0.91529 0.11965,-0.10178 -0.713787,-0.51578 -1.852082,-0.92 -4.143123,-1.47126 -4.980042,-1.84847 -4.980042,-2.24454 0,-0.63067 6.096697,-0.71925 6.782564,-0.0985 0.47574,0.43054 0.49348,0.39567 0.49348,-0.97025 0,-1.10199 -0.0706,-1.34629 -0.3175,-1.09934 -0.17463,0.17462 -0.883406,0.3175 -1.575066,0.3175 -1.219953,0 -1.265469,-0.0286 -1.521897,-0.95734 -0.38381,-1.39004 -0.99849,-1.95308 -2.132227,-1.95308 -1.533364,0 -1.930822,0.46811 -2.161543,2.54575 -0.111153,1.00093 -0.208211,2.45298 -0.215683,3.22677 -0.01254,1.29849 0.02801,1.39369 0.526334,1.23553 0.516333,-0.16388 3.316916,0.53443 3.785392,0.94386 0.296736,0.25934 -3.374221,1.08769 -3.909673,0.88222 -0.28979,-0.1112 -0.41564,-0.004 -0.41564,0.35388 0,0.66126 0.270725,0.9257 0.637114,0.62234 0.158911,-0.13157 1.717678,-0.56783 3.463928,-0.96947 z m -3.521894,-6.39147 c 0.148005,-0.76853 1.40122,-1.21251 2.447679,-0.86715 0.861409,0.28429 1.341959,0.83993 1.011888,1.17 -0.08699,0.087 -0.920952,0.15816 -1.853254,0.15816 -1.469135,0 -1.68326,-0.0615 -1.606313,-0.46101 z m 74.033355,2.44538 c 0,-1.50328 -0.24732,-1.77485 -0.96384,-1.05833 -0.30219,0.30219 -1.05716,0.39687 -3.1644,0.39687 -2.21596,0 -2.79789,-0.0791 -2.91983,-0.39687 -0.31565,-0.82258 -0.62485,-0.34831 -0.62485,0.95844 0,1.17813 0.0522,1.31201 0.39914,1.02406 0.25791,-0.21405 1.38804,-0.34253 3.194,-0.36313 2.35214,-0.0268 2.86122,0.0415 3.21375,0.43115 0.68285,0.75481 0.86603,0.54495 0.86603,-0.99219 z m -0.66751,-2.51124 c 0.67145,-0.25528 0.68779,-0.31678 0.61253,-2.30502 l -0.0773,-2.04273 -0.92425,-0.18827 c -0.89133,-0.18156 -1.53476,-0.0141 -0.86523,0.22519 0.17995,0.0643 0.58585,0.32639 0.90199,0.58238 1.03587,0.83879 0.4008,1.08032 -2.8406,1.08032 -2.45405,0 -3.06456,-0.076 -3.18769,-0.39688 -0.0838,-0.21828 -0.31815,-0.39687 -0.52086,-0.39687 -0.26044,0 -0.36857,0.34932 -0.36857,1.19062 0,0.88195 0.10289,1.19063 0.39687,1.19063 0.21829,0 0.39688,-0.11907 0.39688,-0.26459 0,-0.16227 1.27882,-0.26458 3.30729,-0.26458 1.85887,0 3.30729,0.1076 3.30729,0.24568 0,0.37739 -0.78579,1.07724 -1.20952,1.07724 -0.20789,0 -0.37798,0.11906 -0.37798,0.26458 0,0.33668 0.5673,0.33758 1.44916,0.002 z m -73.320146,-3.30959 c 0.123981,-0.32309 0.758891,-0.39688 3.414974,-0.39688 2.184862,0 3.367562,0.10489 3.580182,0.3175 0.24694,0.24695 0.3175,-0.21398 0.3175,-2.07419 0,-2.30617 -0.0241,-2.40268 -0.67391,-2.69875 -1.105855,-0.50386 -1.265082,-0.35444 -0.540237,0.507 0.444986,0.52883 0.684977,1.13138 0.684977,1.71979 v 0.90574 h -1.728095 c -1.359542,0 -1.763707,-0.0928 -1.895073,-0.43514 -0.09891,-0.25775 0.01233,-0.56625 0.272887,-0.75677 0.241926,-0.1769 0.439865,-0.39781 0.439865,-0.49091 0,-0.27738 -1.050333,-0.19217 -1.661238,0.13478 l -0.568116,0.30405 0.607669,0.22479 c 1.027313,0.38002 0.505004,0.88691 -0.913905,0.88691 -1.262097,0 -1.303257,-0.0245 -1.381022,-0.82295 -0.05624,-0.57745 0.12135,-1.06243 0.595312,-1.6257 0.881922,-1.0481 0.852562,-1.2284 -0.118283,-0.72635 -0.691147,0.3574 -0.794048,0.55494 -0.79605,1.52814 -0.0013,0.61473 -0.07738,1.74277 -0.169146,2.50675 -0.106467,0.88638 -0.068,1.38906 0.106284,1.38906 0.150221,0 0.341663,-0.17859 0.425425,-0.39687 z m 70.232256,-2.99824 c 1.3489,-1.38864 1.97445,-1.72903 2.73434,-1.48785 0.65451,0.20774 0.62916,1.09957 -0.0373,1.31109 -0.69709,0.22125 -0.67235,0.5623 0.0546,0.7524 0.70042,0.18316 0.62881,0.26342 0.84834,-0.95087 0.15198,-0.84062 0.0783,-1.09328 -0.48204,-1.65365 -1.15818,-1.15818 -2.26391,-0.88216 -4.19265,1.04659 -0.93728,0.93727 -1.59072,1.13618 -2.28607,0.69589 -0.48587,-0.30765 -0.17511,-1.09195 0.50291,-1.26926 0.72734,-0.1902 0.66147,-0.39521 -0.30343,-0.94447 -0.84106,-0.47877 -1.35193,-0.41544 -0.8332,0.10328 0.15874,0.15874 0.22363,0.73944 0.14671,1.31292 -0.19655,1.46541 0.43793,2.36238 1.67106,2.36238 0.76977,0 1.15417,-0.22577 2.17671,-1.27845 z m -70.232256,-3.08718 c 0.234333,-0.61066 6.147952,-0.57515 6.828796,0.041 0.46339,0.41936 0.48386,0.37395 0.48386,-1.07334 0,-1.50881 -9.3e-4,-1.51056 -0.58804,-1.09934 -0.323422,0.22653 -1.105609,0.41188 -1.738194,0.41188 -1.033463,0 -1.141578,-0.0589 -1.065608,-0.58068 0.06347,-0.4359 0.476019,-0.73201 1.654537,-1.18756 1.755865,-0.67872 1.995675,-0.92803 1.989455,-2.06822 l -0.004,-0.79375 -0.53016,0.71018 c -0.29159,0.3906 -0.928266,0.84157 -1.414837,1.00215 -0.48657,0.16058 -1.090538,0.51945 -1.342151,0.79748 -0.447283,0.49424 -0.472103,0.48812 -1.113846,-0.27455 -0.78535,-0.93333 -2.06846,-1.05077 -3.024275,-0.2768 -0.54108,0.43814 -0.634074,0.78045 -0.718785,2.64583 -0.05973,1.31536 0.0047,2.14259 0.166991,2.14259 0.14536,0 0.332824,-0.1786 0.416586,-0.39688 z m -0.09568,-2.07566 c 0,-0.62086 0.935345,-1.23163 1.886146,-1.23163 1.014865,0 1.553437,0.38527 1.553437,1.11125 0,0.40977 -0.240084,0.47625 -1.719791,0.47625 -1.264238,0 -1.719792,-0.0943 -1.719792,-0.35587 z m 74.083336,0.22358 c 0,-1.54785 -0.0999,-1.66302 -0.91047,-1.04992 -0.76549,0.57899 -5.76839,0.55175 -6.25457,-0.0341 -0.31841,-0.38366 -0.36835,-0.37757 -0.54297,0.0662 -0.25778,0.65509 -0.27974,2.21059 -0.031,2.20005 0.10914,-0.005 0.40817,-0.16759 0.66452,-0.36214 0.69528,-0.52767 6.02797,-0.33639 6.34356,0.22754 0.44567,0.79636 0.73098,0.38747 0.73098,-1.04761 z m -0.81669,-2.15177 0.83696,-0.16739 -0.0763,-2.13757 -0.0763,-2.13757 -0.92425,-0.18832 c -0.91586,-0.18662 -1.52855,-0.0111 -0.82862,0.23733 0.59383,0.2108 1.38768,1.12058 1.21774,1.39556 -0.0867,0.14022 -1.52349,0.25494 -3.19296,0.25494 -2.45405,0 -3.06456,-0.076 -3.18769,-0.39688 -0.0838,-0.21828 -0.31815,-0.39687 -0.52086,-0.39687 -0.26044,0 -0.36857,0.34932 -0.36857,1.19062 0,0.88195 0.10289,1.19063 0.39687,1.19063 0.21829,0 0.39688,-0.11907 0.39688,-0.26459 0,-0.16227 1.27882,-0.26458 3.30729,-0.26458 1.85887,0 3.30729,0.1076 3.30729,0.24568 0,0.37739 -0.78579,1.07724 -1.20952,1.07724 -0.20789,0 -0.37798,0.11906 -0.37798,0.26458 0,0.30968 0.17292,0.3226 1.29998,0.0972 z m -72.831974,-2.87531 c 0.569381,-0.56939 5.705358,-0.57181 6.177494,-0.003 0.52343,0.63069 0.79617,0.20443 0.79617,-1.24434 0,-1.33254 -0.006,-1.3427 -0.53034,-0.86837 -0.437527,0.39596 -1.01958,0.48417 -3.326165,0.50403 -2.410982,0.0208 -2.85697,-0.0438 -3.239978,-0.46891 -0.423814,-0.47042 -0.451507,-0.43409 -0.604978,0.79375 -0.215455,1.72375 -0.03256,2.04711 0.727797,1.28675 z m 65.975744,-1.86665 c 0,-0.24346 0.58417,-0.66978 1.43089,-1.04424 0.78698,-0.34804 1.51636,-0.77111 1.62084,-0.940156 0.12701,-0.20551 0.38628,-0.06113 0.78244,0.435696 0.82867,1.03925 2.32406,1.04573 3.21158,0.0139 0.52963,-0.615735 0.62717,-1.014883 0.62717,-2.56646 0,-1.010523 -0.068,-1.837323 -0.15119,-1.837323 -0.0831,0 -0.32979,0.178594 -0.54807,0.396875 -0.60202,0.602023 -6.0806,0.568762 -6.75439,-0.04101 -0.46347,-0.419439 -0.48385,-0.373137 -0.48385,1.099341 0,1.509852 0.009,1.528868 0.51843,1.068049 0.28514,-0.258043 1.05904,-0.530106 1.71979,-0.604584 1.14217,-0.128738 1.20136,-0.102701 1.20136,0.52836 0,0.508436 -0.20123,0.73683 -0.85989,0.975974 -2.1909,0.795458 -2.70925,1.178828 -2.79489,2.067098 -0.0466,0.48301 0.0404,0.8599 0.19844,0.8599 0.15474,0 0.28134,-0.18515 0.28134,-0.41144 z m 4.11994,-2.65017 c -0.22867,-0.228674 -0.41577,-0.651076 -0.41577,-0.938668 0,-0.472818 0.15634,-0.515347 1.63265,-0.444121 1.8065,0.08716 2.13857,0.408596 1.2943,1.25286 -0.64806,0.648062 -1.92688,0.714229 -2.51118,0.129929 z m -64.772251,1.21035 c 0.474822,-0.2895 1.066251,-0.951929 1.314281,-1.472057 0.40496,-0.849212 0.41066,-1.017487 0.0559,-1.649503 -1.048637,-1.868284 -3.983954,-2.517799 -6.072846,-1.343776 -1.664479,0.93549 -2.01707,2.32248 -0.921416,3.62459 1.123306,1.334976 4.08684,1.777996 5.624061,0.840746 z m -4.782057,-1.776934 c -0.771595,-0.08405 -0.988288,-0.214575 -0.922976,-0.555929 0.07204,-0.37654 0.497377,-0.458148 2.728118,-0.523439 2.988834,-0.08748 3.833393,0.04726 3.833393,0.611558 0,0.307001 -0.386664,0.392618 -1.785937,0.395446 -0.982266,0.0021 -2.024063,0.0438 -2.315104,0.09291 -0.291042,0.04911 -0.982914,0.03987 -1.537494,-0.02056 z m 34.345828,-2.457225 c 0.0899,-0.145521 0.57321,-0.264584 1.07395,-0.264584 0.84853,0 1.25609,-0.369847 0.6355,-0.576709 -0.17268,-0.05756 -0.24647,-1.074333 -0.19843,-2.734027 l 0.0765,-2.642388 0.65606,2.05052 c 0.36083,1.127787 0.72893,2.050521 0.81801,2.050521 0.0891,0 0.29642,-0.44877 0.46075,-0.997267 0.16433,-0.548497 0.45107,-1.205201 0.63719,-1.459344 0.28688,-0.391724 0.34588,-0.157057 0.38748,1.54129 0.0375,1.530176 -0.0406,2.037792 -0.33073,2.14911 -0.73606,0.282454 -0.3675,0.618294 0.67853,0.618294 1.00452,0 1.37052,-0.304998 0.79375,-0.661458 -0.15181,-0.09382 -0.26458,-1.47306 -0.26458,-3.235928 0,-2.539692 0.0793,-3.159984 0.45712,-3.577516 0.44229,-0.48873 0.4274,-0.502276 -0.45908,-0.417708 -0.88366,0.0843 -0.93512,0.150765 -1.4493,1.871708 -0.29322,0.981368 -0.5954,1.78504 -0.67154,1.785937 -0.0761,7.94e-4 -0.42215,-0.831805 -0.76895,-1.850451 -0.61215,-1.798071 -0.65634,-1.852083 -1.51523,-1.852083 -0.81523,0 -1.22083,0.367119 -0.63335,0.573264 0.13824,0.04851 0.2708,1.541719 0.29458,3.318248 0.036,2.693551 -0.0296,3.302884 -0.39524,3.668525 -0.40824,0.408239 -0.47206,0.408072 -0.92567,-0.0024 -0.26795,-0.242499 -0.55454,-0.777656 -0.63686,-1.189239 -0.0823,-0.411583 -0.3341,-0.932775 -0.55953,-1.158203 -0.53896,-0.538953 -0.51985,-0.67066 0.17943,-1.236903 0.4406,-0.35678 0.5893,-0.758486 0.5893,-1.592011 0,-1.625564 -0.70997,-2.116667 -3.05999,-2.116667 -1.70606,0 -2.33547,0.275813 -1.4259,0.624847 0.3222,0.123639 0.39687,0.748337 0.39687,3.319985 0,1.826389 -0.11203,3.236928 -0.26458,3.33121 -0.53824,0.332652 -0.23059,0.530979 0.92735,0.59781 0.65412,0.03775 1.18932,0.02159 1.18932,-0.0359 0,-0.0575 -0.17786,-0.445577 -0.39525,-0.862394 -0.21738,-0.416817 -0.39597,-1.144802 -0.39687,-1.617744 -0.001,-0.734669 0.092,-0.859896 0.64129,-0.859896 0.54995,0 0.71256,0.219136 1.12448,1.515356 0.34035,1.071001 0.67552,1.612953 1.14302,1.848183 0.80564,0.405376 0.98019,0.416523 1.19062,0.07604 z m -3.92465,-4.14514 c -0.097,-0.09701 -0.17639,-0.815126 -0.17639,-1.595802 0,-1.048636 0.10903,-1.461255 0.41739,-1.579584 1.10658,-0.424636 1.79036,2.243876 0.76676,2.992353 -0.55125,0.403079 -0.75137,0.439428 -1.00776,0.183033 z m -18.98147,3.493847 c 1.56126,-0.807358 2.14566,-4.292214 1.00391,-5.986454 -0.33179,-0.492343 -0.89734,-1.043976 -1.25677,-1.225852 -0.63668,-0.322162 -3.16706,-0.479466 -3.16706,-0.196884 0,0.07788 0.19544,0.43989 0.43432,0.804466 0.36026,0.549818 0.40974,1.144652 0.29015,3.4879 -0.0863,1.691122 -0.26064,2.863853 -0.43433,2.921749 -0.15958,0.05319 -0.29014,0.205857 -0.29014,0.339249 0,0.388948 2.60103,0.279294 3.41992,-0.144174 z m -1.56784,-3.58204 c 0,-2.82096 0.0687,-3.439584 0.38187,-3.439584 0.49828,0 1.15351,0.949323 1.47443,2.13623 0.18774,0.694349 0.14821,1.358188 -0.14877,2.498381 -0.43798,1.681533 -0.77487,2.244556 -1.34305,2.244556 -0.29089,0 -0.36448,-0.694444 -0.36448,-3.439583 z m 7.39903,3.456977 c 0.47741,-0.892051 0.29742,-1.132645 -0.42325,-0.565764 -0.38343,0.301604 -0.97874,0.54837 -1.32292,0.54837 -0.58776,0 -0.62578,-0.0955 -0.62578,-1.571884 0,-1.741551 0.30412,-2.153378 1.07501,-1.455735 0.49645,0.449281 0.51249,0.438158 0.51249,-0.355344 0,-0.8217 -0.53942,-1.481044 -0.73403,-0.897215 -0.0571,0.171286 -0.27248,0.311428 -0.47864,0.311428 -0.27281,0 -0.37483,-0.355822 -0.37483,-1.307302 0,-0.719016 0.10908,-1.374711 0.24238,-1.457101 0.34857,-0.215422 1.64199,0.324713 2.33731,0.976065 0.73481,0.688335 0.76441,0.34912 0.0691,-0.791349 -0.51062,-0.837472 -0.57228,-0.859896 -2.36465,-0.859896 -1.91369,0 -2.41451,0.233374 -1.72637,0.804474 0.55345,0.459326 0.51959,5.655576 -0.0426,6.537713 l -0.3794,0.595312 h 1.98117 c 1.68793,0 2.0217,-0.07575 2.25506,-0.511772 z m 4.24264,0.275497 c 0,-0.129953 -0.1786,-0.304808 -0.39688,-0.388572 -0.29207,-0.112081 -0.39687,-0.573681 -0.39687,-1.7481 0,-1.427631 0.0566,-1.595802 0.53747,-1.595802 0.29561,0 0.606,0.178593 0.68976,0.396875 0.31652,0.82483 0.68212,0.388154 0.49841,-0.595313 -0.22857,-1.223632 -0.36941,-1.382821 -0.7003,-0.791546 -0.14184,0.25345 -0.43056,0.460817 -0.64161,0.460817 -0.28927,0 -0.38373,-0.362355 -0.38373,-1.471972 v -1.471972 l 0.85805,0.08291 c 0.63825,0.06167 0.94941,0.274439 1.21468,0.830563 0.45874,0.961768 0.68579,0.729718 0.46058,-0.470734 l -0.17604,-0.938378 h -1.82448 c -1.74058,0 -2.56829,0.300639 -1.7219,0.62543 0.32052,0.122994 0.39536,0.755863 0.39536,3.34332 0,2.587455 -0.0748,3.220325 -0.39536,3.343319 -0.21744,0.08344 -0.32948,0.2583 -0.24897,0.38857 0.19075,0.308629 2.23183,0.309163 2.23183,5.29e-4 z M 121.13651,95.618 c 1.46755,-1.027912 1.93704,-4.590143 0.82097,-6.229059 -0.78032,-1.145882 -1.28813,-1.436625 -2.13705,-1.22356 -0.79621,0.199836 -1.36101,1.14039 -1.76362,2.93693 -0.35577,1.587519 0.0375,3.131484 1.0575,4.151466 0.8506,0.850598 1.2302,0.918967 2.0222,0.364223 z m -1.26924,-0.652201 c -0.0509,-0.149944 -0.0556,-1.644179 -0.0105,-3.320521 0.062,-2.299484 0.16755,-3.047894 0.42986,-3.047894 0.39408,0 0.69858,3.862631 0.4332,5.495256 -0.1478,0.909312 -0.6616,1.435491 -0.85261,0.873159 z m 16.67731,0.444606 c -0.1368,-1.591728 -0.0229,-1.785937 1.04699,-1.785937 0.84777,0 1.06992,0.11862 1.34249,0.716848 0.27463,0.602761 0.26034,0.76531 -0.0898,1.021356 -0.68548,0.501231 -0.48557,0.643045 0.90647,0.643045 1.34464,0 1.61734,-0.220027 0.95449,-0.770146 -0.33706,-0.279733 -1.25819,-2.93991 -2.01008,-5.804998 -0.16616,-0.633153 -0.36977,-1.08352 -0.45247,-1.000817 -0.0827,0.0827 -0.67002,1.659044 -1.30514,3.502979 -0.63512,1.843934 -1.36329,3.510907 -1.61817,3.704381 -0.41567,0.315529 -0.37379,0.352639 0.40649,0.360188 0.74305,0.0072 0.86245,-0.0784 0.81875,-0.586899 z m 0.5603,-2.540206 c 0,-0.472051 0.59027,-1.891565 0.78656,-1.891565 0.18077,0 0.53636,1.249791 0.53636,1.885156 0,0.127331 -0.29766,0.231511 -0.66146,0.231511 -0.3638,0 -0.66146,-0.101296 -0.66146,-0.225102 z m 6.88026,2.340239 c 0.31145,-0.437404 0.52193,-1.002951 0.46772,-1.256771 -0.0753,-0.352602 -0.20627,-0.258595 -0.55506,0.398405 -0.25108,0.472942 -0.57859,0.859896 -0.7278,0.859896 -0.52198,0 -1.10527,-1.993001 -1.13773,-3.887388 -0.0427,-2.492813 0.32721,-2.924033 1.42151,-1.657105 0.76563,0.88641 0.80188,0.898626 1.18915,0.400694 0.44092,-0.566914 0.5449,-1.327323 0.14795,-1.081997 -0.13832,0.08549 -0.69733,-0.08352 -1.24223,-0.375566 -0.94105,-0.504376 -1.01651,-0.50807 -1.50481,-0.07367 -1.49467,1.329665 -1.65258,4.79352 -0.31181,6.839789 0.58256,0.889098 1.55258,0.817509 2.25311,-0.166283 z m 3.96766,0.563092 c 0,-0.127701 -0.1786,-0.380405 -0.39688,-0.561562 -0.30616,-0.254096 -0.39687,-0.957525 -0.39687,-3.077695 0,-2.4209 0.063,-2.802296 0.52916,-3.201404 0.82018,-0.702258 0.64626,-0.864651 -0.92604,-0.864651 -1.31371,0 -1.94102,0.323132 -1.14344,0.588993 0.20579,0.06859 0.35137,1.138389 0.42825,3.14678 0.0965,2.521273 0.0452,3.114104 -0.29917,3.458501 -0.22861,0.228606 -0.34194,0.489352 -0.25186,0.579435 0.25423,0.254233 2.45685,0.192913 2.45685,-0.0684 z m 3.64042,-0.363125 c 0.79383,-0.847431 1.12208,-1.872962 1.12208,-3.505729 0,-1.680465 -0.28165,-2.526911 -1.09202,-3.281884 -0.77147,-0.718737 -1.59096,-0.703996 -2.2648,0.04074 -1.6042,1.773002 -1.4826,5.723274 0.21274,6.910734 0.83536,0.585105 1.36024,0.542571 2.022,-0.163859 z m -1.34737,-0.374827 c -0.097,-0.09701 -0.17639,-1.585294 -0.17639,-3.307292 0,-2.473656 0.0761,-3.130902 0.36226,-3.130902 0.44802,0 0.68928,1.350816 0.69316,3.880964 0.004,2.382446 -0.26685,3.169407 -0.87903,2.55723 z m 3.83598,-1.080381 c -0.17766,-3.934444 -0.0815,-3.987809 1.55004,-0.859896 l 1.44905,2.778125 0.0737,-3.648977 c 0.046,-2.275696 0.17043,-3.58919 0.33073,-3.490114 0.14138,0.08737 0.25705,-0.02676 0.25705,-0.253627 0,-0.281934 -0.25123,-0.41249 -0.79375,-0.41249 -0.8255,0 -0.99114,0.225948 -0.51481,0.702271 0.15395,0.153952 0.24082,0.977901 0.19386,1.838853 l -0.0851,1.559917 -0.98094,-2.050521 c -0.90396,-1.889603 -1.04376,-2.05052 -1.78137,-2.05052 -0.78504,0 -1.05897,0.338148 -0.53585,0.661458 0.15237,0.09417 0.26459,1.496848 0.26459,3.307292 0,1.810443 -0.11222,3.213121 -0.26459,3.307291 -0.46883,0.289753 -0.28187,0.661458 0.33269,0.661458 0.57657,0 0.59407,-0.0711 0.50468,-2.05052 z m 6.15093,1.058333 c 0.32421,-0.254661 1.97986,-0.939271 3.67922,-1.521354 1.69937,-0.582083 3.09,-1.124209 3.09029,-1.204725 2.6e-4,-0.08052 -0.98174,-0.534596 -2.18229,-1.009068 -3.52044,-1.391332 -4.66094,-1.942504 -4.80699,-2.323097 -0.24311,-0.633533 -0.68311,-0.3812 -0.68311,0.391751 0,0.903649 0.2347,1.192029 0.67365,0.827731 0.57651,-0.478464 1.7076,0.243056 1.7076,1.08928 0,0.401302 0.0619,0.890971 0.13758,1.088155 0.0865,0.225322 -0.17494,0.476472 -0.70361,0.676023 -0.72292,0.272873 -0.88987,0.253408 -1.1875,-0.138435 -0.19047,-0.250772 -0.35482,-0.396417 -0.36523,-0.323657 -0.13823,0.96651 -0.19874,2.910417 -0.0906,2.910417 0.0778,0 0.40678,-0.20836 0.73099,-0.463021 z m 2.17364,-3.045246 c -0.0874,-0.326027 -0.16051,-0.682072 -0.16249,-0.791212 -0.006,-0.331068 0.76848,-0.223224 1.64238,0.228684 0.88371,0.456983 0.75389,0.663036 -0.62361,0.989844 -0.57076,0.135411 -0.72626,0.05781 -0.85628,-0.427316 z m -69.126676,2.846809 c 0.124163,-0.323562 0.764771,-0.396875 3.467891,-0.396875 2.034008,0 3.315595,0.102269 3.315595,0.264583 0,0.145521 0.11906,0.264583 0.26458,0.264583 0.14552,0 0.26459,-0.595312 0.26459,-1.322916 0,-1.361528 -0.21965,-1.617787 -0.793753,-0.926042 -0.200987,0.242176 -0.780847,0.396875 -1.487605,0.396875 -0.956661,0 -1.158228,-0.08645 -1.158228,-0.496771 0,-0.606732 0.347127,-0.875723 1.719792,-1.332667 1.450324,-0.482793 1.984614,-1.016764 1.983064,-1.981882 l -10e-4,-0.818888 -0.594,0.691304 c -0.326695,0.380218 -1.010713,0.846311 -1.520036,1.035763 -0.509323,0.189452 -1.122358,0.510998 -1.362301,0.714547 -0.378982,0.321498 -0.483194,0.303922 -0.79375,-0.133879 -0.902795,-1.272697 -2.456997,-1.330062 -3.404384,-0.125653 -0.415656,0.52842 -0.524982,1.073213 -0.524982,2.616099 0,1.814476 0.268332,2.480882 0.624847,1.551819 z m -0.09568,-2.196042 c 0,-0.755679 0.55029,-1.11125 1.719792,-1.11125 1.169501,0 1.719791,0.355571 1.719791,1.11125 0,0.409765 -0.240084,0.47625 -1.719791,0.47625 -1.479707,0 -1.719792,-0.06649 -1.719792,-0.47625 z M 121.57523,78.260576 c -1.71528,-0.231081 -3.67949,-1.162549 -4.23306,-2.007397 -0.83801,-1.278975 0.63271,-2.628497 3.42469,-3.142456 0.94847,-0.174598 0.99218,-0.228751 0.99218,-1.228928 0,-2.018686 1.07718,-2.863577 3.65085,-2.863577 1.55975,0 1.56067,-4.76e-4 2.02896,-1.038961 0.74604,-1.654428 1.75874,-2.45578 3.28931,-2.602848 0.72652,-0.06981 1.60641,-0.05528 1.95531,0.03229 0.88973,0.223308 2.02657,1.4208 2.62949,2.769761 0.37564,0.840464 0.62334,1.101731 0.93217,0.983224 1.09992,-0.422081 2.68925,-0.633448 3.3906,-0.450923 0.96445,0.250993 1.7015,1.599469 1.70207,3.114036 l 5.3e-4,1.086788 1.62983,0.170351 c 2.99695,0.313243 4.15799,1.599242 2.68754,2.976784 -2.57057,2.408152 -8.21146,2.786742 -12.27949,0.824142 l -1.80962,-0.873042 -1.1334,0.592815 c -2.75127,1.439028 -5.9871,2.044685 -8.85784,1.657941 z m 5.6253,-1.389223 c 0.81103,-0.342012 1.45155,-0.730834 1.42338,-0.86405 -0.0896,-0.423845 -2.17125,-0.921552 -4.09758,-0.979713 -2.06304,-0.06229 -3.29645,0.46027 -3.29645,1.396611 0,1.407683 3.13596,1.642541 5.97065,0.447152 z m -4.11857,-0.444802 c -0.46096,-0.647353 -0.48993,-0.79375 -0.1571,-0.79375 0.22445,0 0.5928,0.357188 0.81856,0.79375 0.22576,0.436563 0.29645,0.79375 0.1571,0.79375 -0.13935,0 -0.5077,-0.357187 -0.81856,-0.79375 z m -1.20487,0.24153 c -0.0978,-0.1582 -0.0721,-0.393354 0.0572,-0.522563 0.13685,-0.136845 0.37118,-0.01676 0.56128,0.287637 0.26861,0.430113 0.2585,0.522563 -0.0572,0.522563 -0.21093,0 -0.4635,-0.129437 -0.56127,-0.287637 z m 2.42593,-0.364512 c -0.23502,-0.358683 -0.42731,-0.730449 -0.42731,-0.826147 0,-0.273367 0.79445,0.45605 1.08209,0.993515 0.39123,0.731024 -0.15814,0.590599 -0.65478,-0.167368 z m 1.16019,0.122982 c -0.1691,-0.315968 -0.24792,-0.634019 -0.17516,-0.706779 0.0728,-0.07276 0.27064,0.126228 0.43975,0.442196 0.1691,0.315968 0.24792,0.634019 0.17516,0.70678 -0.0728,0.07276 -0.27065,-0.126228 -0.43975,-0.442197 z m 0.9525,-0.15875 c -0.0942,-0.245385 -0.11167,-0.505686 -0.0389,-0.578447 0.0728,-0.07276 0.20933,0.06848 0.3035,0.313864 0.0942,0.245385 0.11167,0.505686 0.0389,0.578447 -0.0728,0.07276 -0.20934,-0.06848 -0.3035,-0.313864 z m 0.76729,-0.105833 c -0.0899,-0.145521 -0.0374,-0.264583 0.11668,-0.264583 0.15411,0 0.2802,0.119062 0.2802,0.264583 0,0.145521 -0.0525,0.264583 -0.11668,0.264583 -0.0642,0 -0.19026,-0.119062 -0.2802,-0.264583 z m 14.09452,1.304429 c 2.37986,-0.829626 0.2586,-2.928504 -2.52292,-2.496287 -2.70795,0.420786 -4.03097,0.764357 -4.03097,1.04679 0,0.171486 0.74414,0.56564 1.65364,0.875898 2.69461,0.919207 3.60361,1.02561 4.90025,0.573599 z m -2.84131,-0.453842 c -0.0111,-0.449948 0.78036,-1.644337 1.08966,-1.644337 0.26532,0 -0.009,0.593737 -0.6734,1.455208 -0.23953,0.310781 -0.41132,0.388834 -0.41626,0.189129 z m 1.04992,0.0879 c 0,-0.44199 0.67684,-1.467658 0.96851,-1.467658 0.45764,0 0.44652,0.142611 -0.0729,0.935351 -0.37327,0.569683 -0.89561,0.880137 -0.89561,0.532307 z m 1.31503,-0.394589 c 0.40394,-0.754774 0.80164,-0.915135 0.80164,-0.323241 0,0.284061 -0.18833,0.588744 -0.41852,0.677073 -0.6368,0.244363 -0.68128,0.203282 -0.38312,-0.353832 z m -3.11897,-0.41161 c 0.16576,-0.363802 0.40133,-0.661459 0.52349,-0.661459 0.31618,0 0.26123,0.323173 -0.1462,0.859896 -0.51366,0.676668 -0.7253,0.565357 -0.37729,-0.198437 z m -1.76794,-0.132292 c -0.0899,-0.145521 -0.0374,-0.264583 0.11668,-0.264583 0.15411,0 0.2802,0.119062 0.2802,0.264583 0,0.145521 -0.0525,0.264583 -0.11668,0.264583 -0.0642,0 -0.19026,-0.119062 -0.2802,-0.264583 z m 0.92605,0.03123 c 0,-0.145521 0.11906,-0.338168 0.26458,-0.428105 0.14552,-0.08994 0.26458,-0.04446 0.26458,0.101062 0,0.145521 -0.11906,0.338168 -0.26458,0.428105 -0.14552,0.08994 -0.26458,0.04446 -0.26458,-0.101062 z m -6.08542,-1.344501 c 0,-0.383125 -3.17089,-2.945346 -4.15271,-3.355577 -1.90819,-0.797291 -3.28996,-0.245443 -2.68885,1.073858 0.47474,1.041946 1.85315,1.754571 4.13681,2.138705 2.62709,0.4419 2.70475,0.446006 2.70475,0.143014 z m -1.45521,-0.538812 c -0.0899,-0.145521 -0.0374,-0.264584 0.11668,-0.264584 0.15411,0 0.2802,0.119063 0.2802,0.264584 0,0.145521 -0.0525,0.264583 -0.11668,0.264583 -0.0642,0 -0.19026,-0.119062 -0.2802,-0.264583 z m -1.71979,-0.79375 c 0,-0.482612 0.1098,-0.757118 0.26458,-0.661459 0.14552,0.08994 0.26459,0.387594 0.26459,0.661459 0,0.273865 -0.11907,0.571521 -0.26459,0.661458 -0.15478,0.09566 -0.26458,-0.178846 -0.26458,-0.661458 z m 0.81464,0.374826 c 0.0127,-0.308224 0.0754,-0.370919 0.15985,-0.159852 0.0764,0.190996 0.067,0.419199 -0.0209,0.507118 -0.0879,0.08792 -0.15045,-0.06835 -0.13896,-0.347266 z m -1.87297,-0.771701 c 0,-0.509323 0.11906,-0.926042 0.26458,-0.926042 0.14552,0 0.26458,0.416719 0.26458,0.926042 0,0.509323 -0.11906,0.926041 -0.26458,0.926041 -0.14552,0 -0.26458,-0.416718 -0.26458,-0.926041 z m -0.88195,0.485069 c -0.28,-0.279997 -0.20453,-1.940278 0.0882,-1.940278 0.14552,0 0.26458,0.47625 0.26458,1.058334 0,1.081427 -0.0438,1.190923 -0.35278,0.881944 z M 124.46449,72.54 c -0.22689,-0.403623 -0.23985,-0.632268 -0.0427,-0.754098 0.40523,-0.25045 0.56919,0.0036 0.46169,0.715323 l -0.0933,0.618031 z m 11.76417,2.009352 c 1.42362,-0.280225 2.86479,-1.091359 3.36358,-1.893117 0.73718,-1.18494 -1.17613,-1.937257 -2.80124,-1.101453 -1.45513,0.748382 -3.91945,2.758396 -3.91945,3.196884 0,0.434716 0.17417,0.424219 3.35711,-0.202314 z m -2.43107,-0.239471 c 0.0899,-0.145521 0.21602,-0.264584 0.2802,-0.264584 0.0642,0 0.11667,0.119063 0.11667,0.264584 0,0.145521 -0.12609,0.264583 -0.2802,0.264583 -0.15411,0 -0.20661,-0.119062 -0.11667,-0.264583 z m 0.94693,-0.418924 c 0.0127,-0.308224 0.0754,-0.370919 0.15985,-0.159852 0.0764,0.190996 0.067,0.419199 -0.0209,0.507118 -0.0879,0.08792 -0.15045,-0.06835 -0.13896,-0.347266 z m 0.77286,-0.507118 c 0,-0.363802 0.11906,-0.661458 0.26458,-0.661458 0.14552,0 0.26459,0.297656 0.26459,0.661458 0,0.363802 -0.11907,0.661458 -0.26459,0.661458 -0.14552,0 -0.26458,-0.297656 -0.26458,-0.661458 z m 1.05833,-0.220486 c 0,-0.533576 0.11806,-0.970139 0.26236,-0.970139 0.14429,0 0.2232,0.357657 0.17534,0.794793 -0.12847,1.173536 -0.4377,1.297415 -0.4377,0.175346 z m 0.79375,-0.408575 c 0,-0.793149 0.10828,-1.090731 0.39688,-1.090731 0.26083,0 0.39687,0.260984 0.39687,0.761354 0,0.418744 -0.17859,0.909572 -0.39687,1.09073 -0.34187,0.28372 -0.39688,0.178186 -0.39688,-0.761353 z m 1.20567,-0.363126 c 0.22317,-0.726038 0.33482,-0.862806 0.53828,-0.659349 0.22802,0.228013 -0.14568,1.254661 -0.45669,1.254661 -0.15221,0 -0.18687,-0.252833 -0.0816,-0.595312 z m -6.24476,0.926041 c 0.98823,-3.533989 0.9188,-5.752945 -0.21203,-6.776325 -1.00065,-0.905581 -1.89263,0.169889 -1.89263,2.28198 0,1.25946 1.22005,5.486533 1.58357,5.486533 0.134,0 0.36849,-0.446485 0.52109,-0.992188 z m -0.78174,-0.478635 c 0,-0.22687 0.121,-0.337705 0.2689,-0.246302 0.14789,0.0914 0.2004,0.277025 0.11667,0.41249 -0.22681,0.366989 -0.38557,0.298559 -0.38557,-0.166188 z m 0,-0.910427 c -0.20985,-0.129696 -0.32202,-0.295342 -0.24926,-0.368103 0.0728,-0.07276 0.30399,-0.02618 0.51384,0.103519 0.20985,0.129697 0.32202,0.295343 0.24926,0.368103 -0.0728,0.07276 -0.30399,0.02618 -0.51384,-0.103519 z m -0.19844,-0.968979 c -0.36583,-0.147617 -0.45469,-0.618521 -0.11671,-0.618521 0.1177,0 0.44513,0.174807 0.7276,0.38846 0.38272,0.289475 0.41246,0.385282 0.11672,0.375987 -0.21829,-0.0069 -0.54571,-0.07253 -0.72761,-0.145926 z m 0.13229,-0.962327 c -0.40018,-0.158131 -0.7276,-0.441195 -0.7276,-0.629031 0,-0.259907 0.22129,-0.235991 0.92604,0.10008 0.50932,0.242879 0.92604,0.538609 0.92604,0.657178 0,0.263393 -0.18753,0.242009 -1.12448,-0.128227 z m 0,-1.130446 c -0.40018,-0.217102 -0.7276,-0.567596 -0.7276,-0.778876 0,-0.32486 0.14291,-0.315993 0.92604,0.05745 0.50932,0.242879 0.92604,0.598141 0.92604,0.78947 0,0.438799 -0.2141,0.425843 -1.12448,-0.06805 z m 0.13229,-1.244897 c -0.66131,-0.302304 -0.79529,-0.720434 -0.23083,-0.720434 0.36879,0 1.12148,0.728046 0.93,0.899552 -0.0571,0.05116 -0.37174,-0.02945 -0.69917,-0.179118 z"
       id="path744" />
  </g>
</svg>
